G75*
%MOIN*%
%OFA0B0*%
%FSLAX25Y25*%
%IPPOS*%
%LPD*%
%AMOC8*
5,1,8,0,0,1.08239X$1,22.5*
%
%ADD10C,0.00000*%
%ADD11R,0.07087X0.06299*%
%ADD12R,0.06969X0.09843*%
%ADD13C,0.06000*%
%ADD14R,0.08661X0.16535*%
%ADD15R,0.09843X0.16535*%
%ADD16OC8,0.08500*%
%ADD17C,0.06000*%
%ADD18C,0.07000*%
%ADD19R,0.02756X0.05118*%
%ADD20R,0.13386X0.09449*%
%ADD21OC8,0.05150*%
%ADD22R,0.05150X0.05150*%
%ADD23R,0.02323X0.07677*%
%ADD24C,0.01161*%
%ADD25R,0.05512X0.01575*%
%ADD26C,0.05600*%
%ADD27C,0.04756*%
%ADD28C,0.00600*%
%ADD29C,0.02578*%
%ADD30C,0.03169*%
%ADD31C,0.01600*%
%ADD32C,0.01000*%
%ADD33C,0.02000*%
%ADD34C,0.03200*%
%ADD35C,0.04000*%
%ADD36C,0.03937*%
D10*
X0025122Y0017048D02*
X0139295Y0017048D01*
X0139676Y0017053D01*
X0140056Y0017066D01*
X0140436Y0017089D01*
X0140815Y0017122D01*
X0141193Y0017163D01*
X0141570Y0017213D01*
X0141946Y0017273D01*
X0142321Y0017341D01*
X0142693Y0017419D01*
X0143064Y0017506D01*
X0143432Y0017601D01*
X0143798Y0017706D01*
X0144161Y0017819D01*
X0144522Y0017941D01*
X0144879Y0018071D01*
X0145233Y0018211D01*
X0145584Y0018358D01*
X0145931Y0018515D01*
X0146274Y0018679D01*
X0146613Y0018852D01*
X0146948Y0019033D01*
X0147279Y0019222D01*
X0147604Y0019419D01*
X0147925Y0019623D01*
X0148241Y0019836D01*
X0148551Y0020056D01*
X0148857Y0020283D01*
X0149156Y0020518D01*
X0149450Y0020760D01*
X0149738Y0021008D01*
X0150020Y0021264D01*
X0150295Y0021527D01*
X0150564Y0021796D01*
X0150827Y0022071D01*
X0151083Y0022353D01*
X0151331Y0022641D01*
X0151573Y0022935D01*
X0151808Y0023234D01*
X0152035Y0023540D01*
X0152255Y0023850D01*
X0152468Y0024166D01*
X0152672Y0024487D01*
X0152869Y0024812D01*
X0153058Y0025143D01*
X0153239Y0025478D01*
X0153412Y0025817D01*
X0153576Y0026160D01*
X0153733Y0026507D01*
X0153880Y0026858D01*
X0154020Y0027212D01*
X0154150Y0027569D01*
X0154272Y0027930D01*
X0154385Y0028293D01*
X0154490Y0028659D01*
X0154585Y0029027D01*
X0154672Y0029398D01*
X0154750Y0029770D01*
X0154818Y0030145D01*
X0154878Y0030521D01*
X0154928Y0030898D01*
X0154969Y0031276D01*
X0155002Y0031655D01*
X0155025Y0032035D01*
X0155038Y0032415D01*
X0155043Y0032796D01*
X0155043Y0107599D01*
X0155038Y0107980D01*
X0155025Y0108360D01*
X0155002Y0108740D01*
X0154969Y0109119D01*
X0154928Y0109497D01*
X0154878Y0109874D01*
X0154818Y0110250D01*
X0154750Y0110625D01*
X0154672Y0110997D01*
X0154585Y0111368D01*
X0154490Y0111736D01*
X0154385Y0112102D01*
X0154272Y0112465D01*
X0154150Y0112826D01*
X0154020Y0113183D01*
X0153880Y0113537D01*
X0153733Y0113888D01*
X0153576Y0114235D01*
X0153412Y0114578D01*
X0153239Y0114917D01*
X0153058Y0115252D01*
X0152869Y0115583D01*
X0152672Y0115908D01*
X0152468Y0116229D01*
X0152255Y0116545D01*
X0152035Y0116855D01*
X0151808Y0117161D01*
X0151573Y0117460D01*
X0151331Y0117754D01*
X0151083Y0118042D01*
X0150827Y0118324D01*
X0150564Y0118599D01*
X0150295Y0118868D01*
X0150020Y0119131D01*
X0149738Y0119387D01*
X0149450Y0119635D01*
X0149156Y0119877D01*
X0148857Y0120112D01*
X0148551Y0120339D01*
X0148241Y0120559D01*
X0147925Y0120772D01*
X0147604Y0120976D01*
X0147279Y0121173D01*
X0146948Y0121362D01*
X0146613Y0121543D01*
X0146274Y0121716D01*
X0145931Y0121880D01*
X0145584Y0122037D01*
X0145233Y0122184D01*
X0144879Y0122324D01*
X0144522Y0122454D01*
X0144161Y0122576D01*
X0143798Y0122689D01*
X0143432Y0122794D01*
X0143064Y0122889D01*
X0142693Y0122976D01*
X0142321Y0123054D01*
X0141946Y0123122D01*
X0141570Y0123182D01*
X0141193Y0123232D01*
X0140815Y0123273D01*
X0140436Y0123306D01*
X0140056Y0123329D01*
X0139676Y0123342D01*
X0139295Y0123347D01*
X0025122Y0123347D01*
X0024932Y0123345D01*
X0024742Y0123338D01*
X0024552Y0123326D01*
X0024362Y0123310D01*
X0024173Y0123290D01*
X0023984Y0123264D01*
X0023796Y0123235D01*
X0023609Y0123200D01*
X0023423Y0123161D01*
X0023238Y0123118D01*
X0023053Y0123070D01*
X0022870Y0123018D01*
X0022689Y0122962D01*
X0022509Y0122901D01*
X0022330Y0122835D01*
X0022153Y0122766D01*
X0021977Y0122692D01*
X0021804Y0122614D01*
X0021632Y0122531D01*
X0021463Y0122445D01*
X0021295Y0122355D01*
X0021130Y0122260D01*
X0020967Y0122162D01*
X0020807Y0122059D01*
X0020649Y0121953D01*
X0020494Y0121843D01*
X0020341Y0121730D01*
X0020191Y0121612D01*
X0020045Y0121491D01*
X0019901Y0121367D01*
X0019760Y0121239D01*
X0019622Y0121108D01*
X0019487Y0120973D01*
X0019356Y0120835D01*
X0019228Y0120694D01*
X0019104Y0120550D01*
X0018983Y0120404D01*
X0018865Y0120254D01*
X0018752Y0120101D01*
X0018642Y0119946D01*
X0018536Y0119788D01*
X0018433Y0119628D01*
X0018335Y0119465D01*
X0018240Y0119300D01*
X0018150Y0119132D01*
X0018064Y0118963D01*
X0017981Y0118791D01*
X0017903Y0118618D01*
X0017829Y0118442D01*
X0017760Y0118265D01*
X0017694Y0118086D01*
X0017633Y0117906D01*
X0017577Y0117725D01*
X0017525Y0117542D01*
X0017477Y0117357D01*
X0017434Y0117172D01*
X0017395Y0116986D01*
X0017360Y0116799D01*
X0017331Y0116611D01*
X0017305Y0116422D01*
X0017285Y0116233D01*
X0017269Y0116043D01*
X0017257Y0115853D01*
X0017250Y0115663D01*
X0017248Y0115473D01*
X0017248Y0024922D01*
X0017250Y0024732D01*
X0017257Y0024542D01*
X0017269Y0024352D01*
X0017285Y0024162D01*
X0017305Y0023973D01*
X0017331Y0023784D01*
X0017360Y0023596D01*
X0017395Y0023409D01*
X0017434Y0023223D01*
X0017477Y0023038D01*
X0017525Y0022853D01*
X0017577Y0022670D01*
X0017633Y0022489D01*
X0017694Y0022309D01*
X0017760Y0022130D01*
X0017829Y0021953D01*
X0017903Y0021777D01*
X0017981Y0021604D01*
X0018064Y0021432D01*
X0018150Y0021263D01*
X0018240Y0021095D01*
X0018335Y0020930D01*
X0018433Y0020767D01*
X0018536Y0020607D01*
X0018642Y0020449D01*
X0018752Y0020294D01*
X0018865Y0020141D01*
X0018983Y0019991D01*
X0019104Y0019845D01*
X0019228Y0019701D01*
X0019356Y0019560D01*
X0019487Y0019422D01*
X0019622Y0019287D01*
X0019760Y0019156D01*
X0019901Y0019028D01*
X0020045Y0018904D01*
X0020191Y0018783D01*
X0020341Y0018665D01*
X0020494Y0018552D01*
X0020649Y0018442D01*
X0020807Y0018336D01*
X0020967Y0018233D01*
X0021130Y0018135D01*
X0021295Y0018040D01*
X0021463Y0017950D01*
X0021632Y0017864D01*
X0021804Y0017781D01*
X0021977Y0017703D01*
X0022153Y0017629D01*
X0022330Y0017560D01*
X0022509Y0017494D01*
X0022689Y0017433D01*
X0022870Y0017377D01*
X0023053Y0017325D01*
X0023238Y0017277D01*
X0023423Y0017234D01*
X0023609Y0017195D01*
X0023796Y0017160D01*
X0023984Y0017131D01*
X0024173Y0017105D01*
X0024362Y0017085D01*
X0024552Y0017069D01*
X0024742Y0017057D01*
X0024932Y0017050D01*
X0025122Y0017048D01*
X0075712Y0059585D02*
X0075714Y0059669D01*
X0075720Y0059752D01*
X0075730Y0059835D01*
X0075744Y0059918D01*
X0075761Y0060000D01*
X0075783Y0060081D01*
X0075808Y0060160D01*
X0075837Y0060239D01*
X0075870Y0060316D01*
X0075906Y0060391D01*
X0075946Y0060465D01*
X0075989Y0060537D01*
X0076036Y0060606D01*
X0076086Y0060673D01*
X0076139Y0060738D01*
X0076195Y0060800D01*
X0076253Y0060860D01*
X0076315Y0060917D01*
X0076379Y0060970D01*
X0076446Y0061021D01*
X0076515Y0061068D01*
X0076586Y0061113D01*
X0076659Y0061153D01*
X0076734Y0061190D01*
X0076811Y0061224D01*
X0076889Y0061254D01*
X0076968Y0061280D01*
X0077049Y0061303D01*
X0077131Y0061321D01*
X0077213Y0061336D01*
X0077296Y0061347D01*
X0077379Y0061354D01*
X0077463Y0061357D01*
X0077547Y0061356D01*
X0077630Y0061351D01*
X0077714Y0061342D01*
X0077796Y0061329D01*
X0077878Y0061313D01*
X0077959Y0061292D01*
X0078040Y0061268D01*
X0078118Y0061240D01*
X0078196Y0061208D01*
X0078272Y0061172D01*
X0078346Y0061133D01*
X0078418Y0061091D01*
X0078488Y0061045D01*
X0078556Y0060996D01*
X0078621Y0060944D01*
X0078684Y0060889D01*
X0078744Y0060831D01*
X0078802Y0060770D01*
X0078856Y0060706D01*
X0078908Y0060640D01*
X0078956Y0060572D01*
X0079001Y0060501D01*
X0079042Y0060428D01*
X0079081Y0060354D01*
X0079115Y0060278D01*
X0079146Y0060200D01*
X0079173Y0060121D01*
X0079197Y0060040D01*
X0079216Y0059959D01*
X0079232Y0059877D01*
X0079244Y0059794D01*
X0079252Y0059710D01*
X0079256Y0059627D01*
X0079256Y0059543D01*
X0079252Y0059460D01*
X0079244Y0059376D01*
X0079232Y0059293D01*
X0079216Y0059211D01*
X0079197Y0059130D01*
X0079173Y0059049D01*
X0079146Y0058970D01*
X0079115Y0058892D01*
X0079081Y0058816D01*
X0079042Y0058742D01*
X0079001Y0058669D01*
X0078956Y0058598D01*
X0078908Y0058530D01*
X0078856Y0058464D01*
X0078802Y0058400D01*
X0078744Y0058339D01*
X0078684Y0058281D01*
X0078621Y0058226D01*
X0078556Y0058174D01*
X0078488Y0058125D01*
X0078418Y0058079D01*
X0078346Y0058037D01*
X0078272Y0057998D01*
X0078196Y0057962D01*
X0078118Y0057930D01*
X0078040Y0057902D01*
X0077959Y0057878D01*
X0077878Y0057857D01*
X0077796Y0057841D01*
X0077714Y0057828D01*
X0077630Y0057819D01*
X0077547Y0057814D01*
X0077463Y0057813D01*
X0077379Y0057816D01*
X0077296Y0057823D01*
X0077213Y0057834D01*
X0077131Y0057849D01*
X0077049Y0057867D01*
X0076968Y0057890D01*
X0076889Y0057916D01*
X0076811Y0057946D01*
X0076734Y0057980D01*
X0076659Y0058017D01*
X0076586Y0058057D01*
X0076515Y0058102D01*
X0076446Y0058149D01*
X0076379Y0058200D01*
X0076315Y0058253D01*
X0076253Y0058310D01*
X0076195Y0058370D01*
X0076139Y0058432D01*
X0076086Y0058497D01*
X0076036Y0058564D01*
X0075989Y0058633D01*
X0075946Y0058705D01*
X0075906Y0058779D01*
X0075870Y0058854D01*
X0075837Y0058931D01*
X0075808Y0059010D01*
X0075783Y0059089D01*
X0075761Y0059170D01*
X0075744Y0059252D01*
X0075730Y0059335D01*
X0075720Y0059418D01*
X0075714Y0059501D01*
X0075712Y0059585D01*
X0093035Y0059587D02*
X0093037Y0059671D01*
X0093043Y0059754D01*
X0093053Y0059837D01*
X0093067Y0059920D01*
X0093084Y0060002D01*
X0093106Y0060083D01*
X0093131Y0060162D01*
X0093160Y0060241D01*
X0093193Y0060318D01*
X0093229Y0060393D01*
X0093269Y0060467D01*
X0093312Y0060539D01*
X0093359Y0060608D01*
X0093409Y0060675D01*
X0093462Y0060740D01*
X0093518Y0060802D01*
X0093576Y0060862D01*
X0093638Y0060919D01*
X0093702Y0060972D01*
X0093769Y0061023D01*
X0093838Y0061070D01*
X0093909Y0061115D01*
X0093982Y0061155D01*
X0094057Y0061192D01*
X0094134Y0061226D01*
X0094212Y0061256D01*
X0094291Y0061282D01*
X0094372Y0061305D01*
X0094454Y0061323D01*
X0094536Y0061338D01*
X0094619Y0061349D01*
X0094702Y0061356D01*
X0094786Y0061359D01*
X0094870Y0061358D01*
X0094953Y0061353D01*
X0095037Y0061344D01*
X0095119Y0061331D01*
X0095201Y0061315D01*
X0095282Y0061294D01*
X0095363Y0061270D01*
X0095441Y0061242D01*
X0095519Y0061210D01*
X0095595Y0061174D01*
X0095669Y0061135D01*
X0095741Y0061093D01*
X0095811Y0061047D01*
X0095879Y0060998D01*
X0095944Y0060946D01*
X0096007Y0060891D01*
X0096067Y0060833D01*
X0096125Y0060772D01*
X0096179Y0060708D01*
X0096231Y0060642D01*
X0096279Y0060574D01*
X0096324Y0060503D01*
X0096365Y0060430D01*
X0096404Y0060356D01*
X0096438Y0060280D01*
X0096469Y0060202D01*
X0096496Y0060123D01*
X0096520Y0060042D01*
X0096539Y0059961D01*
X0096555Y0059879D01*
X0096567Y0059796D01*
X0096575Y0059712D01*
X0096579Y0059629D01*
X0096579Y0059545D01*
X0096575Y0059462D01*
X0096567Y0059378D01*
X0096555Y0059295D01*
X0096539Y0059213D01*
X0096520Y0059132D01*
X0096496Y0059051D01*
X0096469Y0058972D01*
X0096438Y0058894D01*
X0096404Y0058818D01*
X0096365Y0058744D01*
X0096324Y0058671D01*
X0096279Y0058600D01*
X0096231Y0058532D01*
X0096179Y0058466D01*
X0096125Y0058402D01*
X0096067Y0058341D01*
X0096007Y0058283D01*
X0095944Y0058228D01*
X0095879Y0058176D01*
X0095811Y0058127D01*
X0095741Y0058081D01*
X0095669Y0058039D01*
X0095595Y0058000D01*
X0095519Y0057964D01*
X0095441Y0057932D01*
X0095363Y0057904D01*
X0095282Y0057880D01*
X0095201Y0057859D01*
X0095119Y0057843D01*
X0095037Y0057830D01*
X0094953Y0057821D01*
X0094870Y0057816D01*
X0094786Y0057815D01*
X0094702Y0057818D01*
X0094619Y0057825D01*
X0094536Y0057836D01*
X0094454Y0057851D01*
X0094372Y0057869D01*
X0094291Y0057892D01*
X0094212Y0057918D01*
X0094134Y0057948D01*
X0094057Y0057982D01*
X0093982Y0058019D01*
X0093909Y0058059D01*
X0093838Y0058104D01*
X0093769Y0058151D01*
X0093702Y0058202D01*
X0093638Y0058255D01*
X0093576Y0058312D01*
X0093518Y0058372D01*
X0093462Y0058434D01*
X0093409Y0058499D01*
X0093359Y0058566D01*
X0093312Y0058635D01*
X0093269Y0058707D01*
X0093229Y0058781D01*
X0093193Y0058856D01*
X0093160Y0058933D01*
X0093131Y0059012D01*
X0093106Y0059091D01*
X0093084Y0059172D01*
X0093067Y0059254D01*
X0093053Y0059337D01*
X0093043Y0059420D01*
X0093037Y0059503D01*
X0093035Y0059587D01*
X0125515Y0052481D02*
X0125517Y0052634D01*
X0125523Y0052788D01*
X0125533Y0052941D01*
X0125547Y0053093D01*
X0125565Y0053246D01*
X0125587Y0053397D01*
X0125612Y0053548D01*
X0125642Y0053699D01*
X0125676Y0053849D01*
X0125713Y0053997D01*
X0125754Y0054145D01*
X0125799Y0054291D01*
X0125848Y0054437D01*
X0125901Y0054581D01*
X0125957Y0054723D01*
X0126017Y0054864D01*
X0126081Y0055004D01*
X0126148Y0055142D01*
X0126219Y0055278D01*
X0126294Y0055412D01*
X0126371Y0055544D01*
X0126453Y0055674D01*
X0126537Y0055802D01*
X0126625Y0055928D01*
X0126716Y0056051D01*
X0126810Y0056172D01*
X0126908Y0056290D01*
X0127008Y0056406D01*
X0127112Y0056519D01*
X0127218Y0056630D01*
X0127327Y0056738D01*
X0127439Y0056843D01*
X0127553Y0056944D01*
X0127671Y0057043D01*
X0127790Y0057139D01*
X0127912Y0057232D01*
X0128037Y0057321D01*
X0128164Y0057408D01*
X0128293Y0057490D01*
X0128424Y0057570D01*
X0128557Y0057646D01*
X0128692Y0057719D01*
X0128829Y0057788D01*
X0128968Y0057853D01*
X0129108Y0057915D01*
X0129250Y0057973D01*
X0129393Y0058028D01*
X0129538Y0058079D01*
X0129684Y0058126D01*
X0129831Y0058169D01*
X0129979Y0058208D01*
X0130128Y0058244D01*
X0130278Y0058275D01*
X0130429Y0058303D01*
X0130580Y0058327D01*
X0130733Y0058347D01*
X0130885Y0058363D01*
X0131038Y0058375D01*
X0131191Y0058383D01*
X0131344Y0058387D01*
X0131498Y0058387D01*
X0131651Y0058383D01*
X0131804Y0058375D01*
X0131957Y0058363D01*
X0132109Y0058347D01*
X0132262Y0058327D01*
X0132413Y0058303D01*
X0132564Y0058275D01*
X0132714Y0058244D01*
X0132863Y0058208D01*
X0133011Y0058169D01*
X0133158Y0058126D01*
X0133304Y0058079D01*
X0133449Y0058028D01*
X0133592Y0057973D01*
X0133734Y0057915D01*
X0133874Y0057853D01*
X0134013Y0057788D01*
X0134150Y0057719D01*
X0134285Y0057646D01*
X0134418Y0057570D01*
X0134549Y0057490D01*
X0134678Y0057408D01*
X0134805Y0057321D01*
X0134930Y0057232D01*
X0135052Y0057139D01*
X0135171Y0057043D01*
X0135289Y0056944D01*
X0135403Y0056843D01*
X0135515Y0056738D01*
X0135624Y0056630D01*
X0135730Y0056519D01*
X0135834Y0056406D01*
X0135934Y0056290D01*
X0136032Y0056172D01*
X0136126Y0056051D01*
X0136217Y0055928D01*
X0136305Y0055802D01*
X0136389Y0055674D01*
X0136471Y0055544D01*
X0136548Y0055412D01*
X0136623Y0055278D01*
X0136694Y0055142D01*
X0136761Y0055004D01*
X0136825Y0054864D01*
X0136885Y0054723D01*
X0136941Y0054581D01*
X0136994Y0054437D01*
X0137043Y0054291D01*
X0137088Y0054145D01*
X0137129Y0053997D01*
X0137166Y0053849D01*
X0137200Y0053699D01*
X0137230Y0053548D01*
X0137255Y0053397D01*
X0137277Y0053246D01*
X0137295Y0053093D01*
X0137309Y0052941D01*
X0137319Y0052788D01*
X0137325Y0052634D01*
X0137327Y0052481D01*
X0137325Y0052328D01*
X0137319Y0052174D01*
X0137309Y0052021D01*
X0137295Y0051869D01*
X0137277Y0051716D01*
X0137255Y0051565D01*
X0137230Y0051414D01*
X0137200Y0051263D01*
X0137166Y0051113D01*
X0137129Y0050965D01*
X0137088Y0050817D01*
X0137043Y0050671D01*
X0136994Y0050525D01*
X0136941Y0050381D01*
X0136885Y0050239D01*
X0136825Y0050098D01*
X0136761Y0049958D01*
X0136694Y0049820D01*
X0136623Y0049684D01*
X0136548Y0049550D01*
X0136471Y0049418D01*
X0136389Y0049288D01*
X0136305Y0049160D01*
X0136217Y0049034D01*
X0136126Y0048911D01*
X0136032Y0048790D01*
X0135934Y0048672D01*
X0135834Y0048556D01*
X0135730Y0048443D01*
X0135624Y0048332D01*
X0135515Y0048224D01*
X0135403Y0048119D01*
X0135289Y0048018D01*
X0135171Y0047919D01*
X0135052Y0047823D01*
X0134930Y0047730D01*
X0134805Y0047641D01*
X0134678Y0047554D01*
X0134549Y0047472D01*
X0134418Y0047392D01*
X0134285Y0047316D01*
X0134150Y0047243D01*
X0134013Y0047174D01*
X0133874Y0047109D01*
X0133734Y0047047D01*
X0133592Y0046989D01*
X0133449Y0046934D01*
X0133304Y0046883D01*
X0133158Y0046836D01*
X0133011Y0046793D01*
X0132863Y0046754D01*
X0132714Y0046718D01*
X0132564Y0046687D01*
X0132413Y0046659D01*
X0132262Y0046635D01*
X0132109Y0046615D01*
X0131957Y0046599D01*
X0131804Y0046587D01*
X0131651Y0046579D01*
X0131498Y0046575D01*
X0131344Y0046575D01*
X0131191Y0046579D01*
X0131038Y0046587D01*
X0130885Y0046599D01*
X0130733Y0046615D01*
X0130580Y0046635D01*
X0130429Y0046659D01*
X0130278Y0046687D01*
X0130128Y0046718D01*
X0129979Y0046754D01*
X0129831Y0046793D01*
X0129684Y0046836D01*
X0129538Y0046883D01*
X0129393Y0046934D01*
X0129250Y0046989D01*
X0129108Y0047047D01*
X0128968Y0047109D01*
X0128829Y0047174D01*
X0128692Y0047243D01*
X0128557Y0047316D01*
X0128424Y0047392D01*
X0128293Y0047472D01*
X0128164Y0047554D01*
X0128037Y0047641D01*
X0127912Y0047730D01*
X0127790Y0047823D01*
X0127671Y0047919D01*
X0127553Y0048018D01*
X0127439Y0048119D01*
X0127327Y0048224D01*
X0127218Y0048332D01*
X0127112Y0048443D01*
X0127008Y0048556D01*
X0126908Y0048672D01*
X0126810Y0048790D01*
X0126716Y0048911D01*
X0126625Y0049034D01*
X0126537Y0049160D01*
X0126453Y0049288D01*
X0126371Y0049418D01*
X0126294Y0049550D01*
X0126219Y0049684D01*
X0126148Y0049820D01*
X0126081Y0049958D01*
X0126017Y0050098D01*
X0125957Y0050239D01*
X0125901Y0050381D01*
X0125848Y0050525D01*
X0125799Y0050671D01*
X0125754Y0050817D01*
X0125713Y0050965D01*
X0125676Y0051113D01*
X0125642Y0051263D01*
X0125612Y0051414D01*
X0125587Y0051565D01*
X0125565Y0051716D01*
X0125547Y0051869D01*
X0125533Y0052021D01*
X0125523Y0052174D01*
X0125517Y0052328D01*
X0125515Y0052481D01*
X0146475Y0065851D02*
X0146477Y0065931D01*
X0146483Y0066010D01*
X0146493Y0066089D01*
X0146507Y0066168D01*
X0146524Y0066246D01*
X0146546Y0066323D01*
X0146571Y0066398D01*
X0146601Y0066472D01*
X0146633Y0066545D01*
X0146670Y0066616D01*
X0146710Y0066685D01*
X0146753Y0066752D01*
X0146800Y0066817D01*
X0146849Y0066879D01*
X0146902Y0066939D01*
X0146958Y0066996D01*
X0147016Y0067051D01*
X0147077Y0067102D01*
X0147141Y0067150D01*
X0147207Y0067195D01*
X0147275Y0067237D01*
X0147345Y0067275D01*
X0147417Y0067309D01*
X0147490Y0067340D01*
X0147565Y0067368D01*
X0147642Y0067391D01*
X0147719Y0067411D01*
X0147797Y0067427D01*
X0147876Y0067439D01*
X0147955Y0067447D01*
X0148035Y0067451D01*
X0148115Y0067451D01*
X0148195Y0067447D01*
X0148274Y0067439D01*
X0148353Y0067427D01*
X0148431Y0067411D01*
X0148508Y0067391D01*
X0148585Y0067368D01*
X0148660Y0067340D01*
X0148733Y0067309D01*
X0148805Y0067275D01*
X0148875Y0067237D01*
X0148943Y0067195D01*
X0149009Y0067150D01*
X0149073Y0067102D01*
X0149134Y0067051D01*
X0149192Y0066996D01*
X0149248Y0066939D01*
X0149301Y0066879D01*
X0149350Y0066817D01*
X0149397Y0066752D01*
X0149440Y0066685D01*
X0149480Y0066616D01*
X0149517Y0066545D01*
X0149549Y0066472D01*
X0149579Y0066398D01*
X0149604Y0066323D01*
X0149626Y0066246D01*
X0149643Y0066168D01*
X0149657Y0066089D01*
X0149667Y0066010D01*
X0149673Y0065931D01*
X0149675Y0065851D01*
X0149673Y0065771D01*
X0149667Y0065692D01*
X0149657Y0065613D01*
X0149643Y0065534D01*
X0149626Y0065456D01*
X0149604Y0065379D01*
X0149579Y0065304D01*
X0149549Y0065230D01*
X0149517Y0065157D01*
X0149480Y0065086D01*
X0149440Y0065017D01*
X0149397Y0064950D01*
X0149350Y0064885D01*
X0149301Y0064823D01*
X0149248Y0064763D01*
X0149192Y0064706D01*
X0149134Y0064651D01*
X0149073Y0064600D01*
X0149009Y0064552D01*
X0148943Y0064507D01*
X0148875Y0064465D01*
X0148805Y0064427D01*
X0148733Y0064393D01*
X0148660Y0064362D01*
X0148585Y0064334D01*
X0148508Y0064311D01*
X0148431Y0064291D01*
X0148353Y0064275D01*
X0148274Y0064263D01*
X0148195Y0064255D01*
X0148115Y0064251D01*
X0148035Y0064251D01*
X0147955Y0064255D01*
X0147876Y0064263D01*
X0147797Y0064275D01*
X0147719Y0064291D01*
X0147642Y0064311D01*
X0147565Y0064334D01*
X0147490Y0064362D01*
X0147417Y0064393D01*
X0147345Y0064427D01*
X0147275Y0064465D01*
X0147207Y0064507D01*
X0147141Y0064552D01*
X0147077Y0064600D01*
X0147016Y0064651D01*
X0146958Y0064706D01*
X0146902Y0064763D01*
X0146849Y0064823D01*
X0146800Y0064885D01*
X0146753Y0064950D01*
X0146710Y0065017D01*
X0146670Y0065086D01*
X0146633Y0065157D01*
X0146601Y0065230D01*
X0146571Y0065304D01*
X0146546Y0065379D01*
X0146524Y0065456D01*
X0146507Y0065534D01*
X0146493Y0065613D01*
X0146483Y0065692D01*
X0146477Y0065771D01*
X0146475Y0065851D01*
X0146475Y0077851D02*
X0146477Y0077931D01*
X0146483Y0078010D01*
X0146493Y0078089D01*
X0146507Y0078168D01*
X0146524Y0078246D01*
X0146546Y0078323D01*
X0146571Y0078398D01*
X0146601Y0078472D01*
X0146633Y0078545D01*
X0146670Y0078616D01*
X0146710Y0078685D01*
X0146753Y0078752D01*
X0146800Y0078817D01*
X0146849Y0078879D01*
X0146902Y0078939D01*
X0146958Y0078996D01*
X0147016Y0079051D01*
X0147077Y0079102D01*
X0147141Y0079150D01*
X0147207Y0079195D01*
X0147275Y0079237D01*
X0147345Y0079275D01*
X0147417Y0079309D01*
X0147490Y0079340D01*
X0147565Y0079368D01*
X0147642Y0079391D01*
X0147719Y0079411D01*
X0147797Y0079427D01*
X0147876Y0079439D01*
X0147955Y0079447D01*
X0148035Y0079451D01*
X0148115Y0079451D01*
X0148195Y0079447D01*
X0148274Y0079439D01*
X0148353Y0079427D01*
X0148431Y0079411D01*
X0148508Y0079391D01*
X0148585Y0079368D01*
X0148660Y0079340D01*
X0148733Y0079309D01*
X0148805Y0079275D01*
X0148875Y0079237D01*
X0148943Y0079195D01*
X0149009Y0079150D01*
X0149073Y0079102D01*
X0149134Y0079051D01*
X0149192Y0078996D01*
X0149248Y0078939D01*
X0149301Y0078879D01*
X0149350Y0078817D01*
X0149397Y0078752D01*
X0149440Y0078685D01*
X0149480Y0078616D01*
X0149517Y0078545D01*
X0149549Y0078472D01*
X0149579Y0078398D01*
X0149604Y0078323D01*
X0149626Y0078246D01*
X0149643Y0078168D01*
X0149657Y0078089D01*
X0149667Y0078010D01*
X0149673Y0077931D01*
X0149675Y0077851D01*
X0149673Y0077771D01*
X0149667Y0077692D01*
X0149657Y0077613D01*
X0149643Y0077534D01*
X0149626Y0077456D01*
X0149604Y0077379D01*
X0149579Y0077304D01*
X0149549Y0077230D01*
X0149517Y0077157D01*
X0149480Y0077086D01*
X0149440Y0077017D01*
X0149397Y0076950D01*
X0149350Y0076885D01*
X0149301Y0076823D01*
X0149248Y0076763D01*
X0149192Y0076706D01*
X0149134Y0076651D01*
X0149073Y0076600D01*
X0149009Y0076552D01*
X0148943Y0076507D01*
X0148875Y0076465D01*
X0148805Y0076427D01*
X0148733Y0076393D01*
X0148660Y0076362D01*
X0148585Y0076334D01*
X0148508Y0076311D01*
X0148431Y0076291D01*
X0148353Y0076275D01*
X0148274Y0076263D01*
X0148195Y0076255D01*
X0148115Y0076251D01*
X0148035Y0076251D01*
X0147955Y0076255D01*
X0147876Y0076263D01*
X0147797Y0076275D01*
X0147719Y0076291D01*
X0147642Y0076311D01*
X0147565Y0076334D01*
X0147490Y0076362D01*
X0147417Y0076393D01*
X0147345Y0076427D01*
X0147275Y0076465D01*
X0147207Y0076507D01*
X0147141Y0076552D01*
X0147077Y0076600D01*
X0147016Y0076651D01*
X0146958Y0076706D01*
X0146902Y0076763D01*
X0146849Y0076823D01*
X0146800Y0076885D01*
X0146753Y0076950D01*
X0146710Y0077017D01*
X0146670Y0077086D01*
X0146633Y0077157D01*
X0146601Y0077230D01*
X0146571Y0077304D01*
X0146546Y0077379D01*
X0146524Y0077456D01*
X0146507Y0077534D01*
X0146493Y0077613D01*
X0146483Y0077692D01*
X0146477Y0077771D01*
X0146475Y0077851D01*
X0058586Y0103662D02*
X0058588Y0103815D01*
X0058594Y0103969D01*
X0058604Y0104122D01*
X0058618Y0104274D01*
X0058636Y0104427D01*
X0058658Y0104578D01*
X0058683Y0104729D01*
X0058713Y0104880D01*
X0058747Y0105030D01*
X0058784Y0105178D01*
X0058825Y0105326D01*
X0058870Y0105472D01*
X0058919Y0105618D01*
X0058972Y0105762D01*
X0059028Y0105904D01*
X0059088Y0106045D01*
X0059152Y0106185D01*
X0059219Y0106323D01*
X0059290Y0106459D01*
X0059365Y0106593D01*
X0059442Y0106725D01*
X0059524Y0106855D01*
X0059608Y0106983D01*
X0059696Y0107109D01*
X0059787Y0107232D01*
X0059881Y0107353D01*
X0059979Y0107471D01*
X0060079Y0107587D01*
X0060183Y0107700D01*
X0060289Y0107811D01*
X0060398Y0107919D01*
X0060510Y0108024D01*
X0060624Y0108125D01*
X0060742Y0108224D01*
X0060861Y0108320D01*
X0060983Y0108413D01*
X0061108Y0108502D01*
X0061235Y0108589D01*
X0061364Y0108671D01*
X0061495Y0108751D01*
X0061628Y0108827D01*
X0061763Y0108900D01*
X0061900Y0108969D01*
X0062039Y0109034D01*
X0062179Y0109096D01*
X0062321Y0109154D01*
X0062464Y0109209D01*
X0062609Y0109260D01*
X0062755Y0109307D01*
X0062902Y0109350D01*
X0063050Y0109389D01*
X0063199Y0109425D01*
X0063349Y0109456D01*
X0063500Y0109484D01*
X0063651Y0109508D01*
X0063804Y0109528D01*
X0063956Y0109544D01*
X0064109Y0109556D01*
X0064262Y0109564D01*
X0064415Y0109568D01*
X0064569Y0109568D01*
X0064722Y0109564D01*
X0064875Y0109556D01*
X0065028Y0109544D01*
X0065180Y0109528D01*
X0065333Y0109508D01*
X0065484Y0109484D01*
X0065635Y0109456D01*
X0065785Y0109425D01*
X0065934Y0109389D01*
X0066082Y0109350D01*
X0066229Y0109307D01*
X0066375Y0109260D01*
X0066520Y0109209D01*
X0066663Y0109154D01*
X0066805Y0109096D01*
X0066945Y0109034D01*
X0067084Y0108969D01*
X0067221Y0108900D01*
X0067356Y0108827D01*
X0067489Y0108751D01*
X0067620Y0108671D01*
X0067749Y0108589D01*
X0067876Y0108502D01*
X0068001Y0108413D01*
X0068123Y0108320D01*
X0068242Y0108224D01*
X0068360Y0108125D01*
X0068474Y0108024D01*
X0068586Y0107919D01*
X0068695Y0107811D01*
X0068801Y0107700D01*
X0068905Y0107587D01*
X0069005Y0107471D01*
X0069103Y0107353D01*
X0069197Y0107232D01*
X0069288Y0107109D01*
X0069376Y0106983D01*
X0069460Y0106855D01*
X0069542Y0106725D01*
X0069619Y0106593D01*
X0069694Y0106459D01*
X0069765Y0106323D01*
X0069832Y0106185D01*
X0069896Y0106045D01*
X0069956Y0105904D01*
X0070012Y0105762D01*
X0070065Y0105618D01*
X0070114Y0105472D01*
X0070159Y0105326D01*
X0070200Y0105178D01*
X0070237Y0105030D01*
X0070271Y0104880D01*
X0070301Y0104729D01*
X0070326Y0104578D01*
X0070348Y0104427D01*
X0070366Y0104274D01*
X0070380Y0104122D01*
X0070390Y0103969D01*
X0070396Y0103815D01*
X0070398Y0103662D01*
X0070396Y0103509D01*
X0070390Y0103355D01*
X0070380Y0103202D01*
X0070366Y0103050D01*
X0070348Y0102897D01*
X0070326Y0102746D01*
X0070301Y0102595D01*
X0070271Y0102444D01*
X0070237Y0102294D01*
X0070200Y0102146D01*
X0070159Y0101998D01*
X0070114Y0101852D01*
X0070065Y0101706D01*
X0070012Y0101562D01*
X0069956Y0101420D01*
X0069896Y0101279D01*
X0069832Y0101139D01*
X0069765Y0101001D01*
X0069694Y0100865D01*
X0069619Y0100731D01*
X0069542Y0100599D01*
X0069460Y0100469D01*
X0069376Y0100341D01*
X0069288Y0100215D01*
X0069197Y0100092D01*
X0069103Y0099971D01*
X0069005Y0099853D01*
X0068905Y0099737D01*
X0068801Y0099624D01*
X0068695Y0099513D01*
X0068586Y0099405D01*
X0068474Y0099300D01*
X0068360Y0099199D01*
X0068242Y0099100D01*
X0068123Y0099004D01*
X0068001Y0098911D01*
X0067876Y0098822D01*
X0067749Y0098735D01*
X0067620Y0098653D01*
X0067489Y0098573D01*
X0067356Y0098497D01*
X0067221Y0098424D01*
X0067084Y0098355D01*
X0066945Y0098290D01*
X0066805Y0098228D01*
X0066663Y0098170D01*
X0066520Y0098115D01*
X0066375Y0098064D01*
X0066229Y0098017D01*
X0066082Y0097974D01*
X0065934Y0097935D01*
X0065785Y0097899D01*
X0065635Y0097868D01*
X0065484Y0097840D01*
X0065333Y0097816D01*
X0065180Y0097796D01*
X0065028Y0097780D01*
X0064875Y0097768D01*
X0064722Y0097760D01*
X0064569Y0097756D01*
X0064415Y0097756D01*
X0064262Y0097760D01*
X0064109Y0097768D01*
X0063956Y0097780D01*
X0063804Y0097796D01*
X0063651Y0097816D01*
X0063500Y0097840D01*
X0063349Y0097868D01*
X0063199Y0097899D01*
X0063050Y0097935D01*
X0062902Y0097974D01*
X0062755Y0098017D01*
X0062609Y0098064D01*
X0062464Y0098115D01*
X0062321Y0098170D01*
X0062179Y0098228D01*
X0062039Y0098290D01*
X0061900Y0098355D01*
X0061763Y0098424D01*
X0061628Y0098497D01*
X0061495Y0098573D01*
X0061364Y0098653D01*
X0061235Y0098735D01*
X0061108Y0098822D01*
X0060983Y0098911D01*
X0060861Y0099004D01*
X0060742Y0099100D01*
X0060624Y0099199D01*
X0060510Y0099300D01*
X0060398Y0099405D01*
X0060289Y0099513D01*
X0060183Y0099624D01*
X0060079Y0099737D01*
X0059979Y0099853D01*
X0059881Y0099971D01*
X0059787Y0100092D01*
X0059696Y0100215D01*
X0059608Y0100341D01*
X0059524Y0100469D01*
X0059442Y0100599D01*
X0059365Y0100731D01*
X0059290Y0100865D01*
X0059219Y0101001D01*
X0059152Y0101139D01*
X0059088Y0101279D01*
X0059028Y0101420D01*
X0058972Y0101562D01*
X0058919Y0101706D01*
X0058870Y0101852D01*
X0058825Y0101998D01*
X0058784Y0102146D01*
X0058747Y0102294D01*
X0058713Y0102444D01*
X0058683Y0102595D01*
X0058658Y0102746D01*
X0058636Y0102897D01*
X0058618Y0103050D01*
X0058604Y0103202D01*
X0058594Y0103355D01*
X0058588Y0103509D01*
X0058586Y0103662D01*
D11*
X0061224Y0067442D03*
X0061224Y0056418D03*
X0111067Y0061536D03*
X0111067Y0050513D03*
D12*
X0023862Y0049087D03*
X0023862Y0069891D03*
D13*
X0057122Y0036930D02*
X0063122Y0036930D01*
X0063122Y0026930D02*
X0057122Y0026930D01*
D14*
X0022626Y0033269D03*
D15*
X0042311Y0033269D03*
D16*
X0074846Y0029883D03*
X0088035Y0029883D03*
X0105161Y0029883D03*
X0116776Y0029883D03*
D17*
X0124492Y0110513D03*
X0134492Y0110513D03*
X0144492Y0110513D03*
D18*
X0104925Y0117481D03*
X0094925Y0117481D03*
X0084925Y0117481D03*
X0074925Y0117481D03*
D19*
X0048134Y0069253D03*
X0043134Y0069253D03*
X0038134Y0069253D03*
X0033134Y0069253D03*
X0033134Y0047599D03*
X0038134Y0047599D03*
X0043134Y0047599D03*
X0048134Y0047599D03*
D20*
X0040634Y0058426D03*
D21*
X0045268Y0060591D03*
X0045268Y0056261D03*
X0036000Y0056261D03*
X0036000Y0060591D03*
D22*
X0040634Y0060591D03*
X0040634Y0056261D03*
D23*
X0101618Y0047954D03*
D24*
X0097199Y0051212D02*
X0097199Y0044696D01*
X0096037Y0044696D01*
X0096037Y0051212D01*
X0097199Y0051212D01*
X0097199Y0045799D02*
X0096037Y0045799D01*
X0096037Y0046902D02*
X0097199Y0046902D01*
X0097199Y0048005D02*
X0096037Y0048005D01*
X0096037Y0049108D02*
X0097199Y0049108D01*
X0097199Y0050211D02*
X0096037Y0050211D01*
X0092199Y0051212D02*
X0092199Y0044696D01*
X0091037Y0044696D01*
X0091037Y0051212D01*
X0092199Y0051212D01*
X0092199Y0045799D02*
X0091037Y0045799D01*
X0091037Y0046902D02*
X0092199Y0046902D01*
X0092199Y0048005D02*
X0091037Y0048005D01*
X0091037Y0049108D02*
X0092199Y0049108D01*
X0092199Y0050211D02*
X0091037Y0050211D01*
X0087199Y0051212D02*
X0087199Y0044696D01*
X0086037Y0044696D01*
X0086037Y0051212D01*
X0087199Y0051212D01*
X0087199Y0045799D02*
X0086037Y0045799D01*
X0086037Y0046902D02*
X0087199Y0046902D01*
X0087199Y0048005D02*
X0086037Y0048005D01*
X0086037Y0049108D02*
X0087199Y0049108D01*
X0087199Y0050211D02*
X0086037Y0050211D01*
X0082199Y0051212D02*
X0082199Y0044696D01*
X0081037Y0044696D01*
X0081037Y0051212D01*
X0082199Y0051212D01*
X0082199Y0045799D02*
X0081037Y0045799D01*
X0081037Y0046902D02*
X0082199Y0046902D01*
X0082199Y0048005D02*
X0081037Y0048005D01*
X0081037Y0049108D02*
X0082199Y0049108D01*
X0082199Y0050211D02*
X0081037Y0050211D01*
X0077199Y0051212D02*
X0077199Y0044696D01*
X0076037Y0044696D01*
X0076037Y0051212D01*
X0077199Y0051212D01*
X0077199Y0045799D02*
X0076037Y0045799D01*
X0076037Y0046902D02*
X0077199Y0046902D01*
X0077199Y0048005D02*
X0076037Y0048005D01*
X0076037Y0049108D02*
X0077199Y0049108D01*
X0077199Y0050211D02*
X0076037Y0050211D01*
X0072199Y0051212D02*
X0072199Y0044696D01*
X0071037Y0044696D01*
X0071037Y0051212D01*
X0072199Y0051212D01*
X0072199Y0045799D02*
X0071037Y0045799D01*
X0071037Y0046902D02*
X0072199Y0046902D01*
X0072199Y0048005D02*
X0071037Y0048005D01*
X0071037Y0049108D02*
X0072199Y0049108D01*
X0072199Y0050211D02*
X0071037Y0050211D01*
X0072199Y0064223D02*
X0072199Y0070739D01*
X0072199Y0064223D02*
X0071037Y0064223D01*
X0071037Y0070739D01*
X0072199Y0070739D01*
X0072199Y0065326D02*
X0071037Y0065326D01*
X0071037Y0066429D02*
X0072199Y0066429D01*
X0072199Y0067532D02*
X0071037Y0067532D01*
X0071037Y0068635D02*
X0072199Y0068635D01*
X0072199Y0069738D02*
X0071037Y0069738D01*
X0077199Y0070739D02*
X0077199Y0064223D01*
X0076037Y0064223D01*
X0076037Y0070739D01*
X0077199Y0070739D01*
X0077199Y0065326D02*
X0076037Y0065326D01*
X0076037Y0066429D02*
X0077199Y0066429D01*
X0077199Y0067532D02*
X0076037Y0067532D01*
X0076037Y0068635D02*
X0077199Y0068635D01*
X0077199Y0069738D02*
X0076037Y0069738D01*
X0082199Y0070739D02*
X0082199Y0064223D01*
X0081037Y0064223D01*
X0081037Y0070739D01*
X0082199Y0070739D01*
X0082199Y0065326D02*
X0081037Y0065326D01*
X0081037Y0066429D02*
X0082199Y0066429D01*
X0082199Y0067532D02*
X0081037Y0067532D01*
X0081037Y0068635D02*
X0082199Y0068635D01*
X0082199Y0069738D02*
X0081037Y0069738D01*
X0087199Y0070739D02*
X0087199Y0064223D01*
X0086037Y0064223D01*
X0086037Y0070739D01*
X0087199Y0070739D01*
X0087199Y0065326D02*
X0086037Y0065326D01*
X0086037Y0066429D02*
X0087199Y0066429D01*
X0087199Y0067532D02*
X0086037Y0067532D01*
X0086037Y0068635D02*
X0087199Y0068635D01*
X0087199Y0069738D02*
X0086037Y0069738D01*
X0092199Y0070739D02*
X0092199Y0064223D01*
X0091037Y0064223D01*
X0091037Y0070739D01*
X0092199Y0070739D01*
X0092199Y0065326D02*
X0091037Y0065326D01*
X0091037Y0066429D02*
X0092199Y0066429D01*
X0092199Y0067532D02*
X0091037Y0067532D01*
X0091037Y0068635D02*
X0092199Y0068635D01*
X0092199Y0069738D02*
X0091037Y0069738D01*
X0097199Y0070739D02*
X0097199Y0064223D01*
X0096037Y0064223D01*
X0096037Y0070739D01*
X0097199Y0070739D01*
X0097199Y0065326D02*
X0096037Y0065326D01*
X0096037Y0066429D02*
X0097199Y0066429D01*
X0097199Y0067532D02*
X0096037Y0067532D01*
X0096037Y0068635D02*
X0097199Y0068635D01*
X0097199Y0069738D02*
X0096037Y0069738D01*
X0102199Y0070739D02*
X0102199Y0064223D01*
X0101037Y0064223D01*
X0101037Y0070739D01*
X0102199Y0070739D01*
X0102199Y0065326D02*
X0101037Y0065326D01*
X0101037Y0066429D02*
X0102199Y0066429D01*
X0102199Y0067532D02*
X0101037Y0067532D01*
X0101037Y0068635D02*
X0102199Y0068635D01*
X0102199Y0069738D02*
X0101037Y0069738D01*
D25*
X0033980Y0098229D03*
X0033980Y0100788D03*
X0033980Y0103347D03*
X0033980Y0105906D03*
X0033980Y0108465D03*
D26*
X0024531Y0117619D03*
X0022957Y0117599D03*
X0022957Y0089056D03*
X0024531Y0089076D03*
D27*
X0034177Y0093780D03*
X0034177Y0112894D03*
D28*
X0020474Y0020274D02*
X0022137Y0019065D01*
X0024094Y0018429D01*
X0025122Y0018348D01*
X0139295Y0018348D01*
X0141181Y0018472D01*
X0144824Y0019448D01*
X0148091Y0021334D01*
X0150758Y0024001D01*
X0152644Y0027267D01*
X0153620Y0030910D01*
X0153743Y0032796D01*
X0153743Y0107599D01*
X0153620Y0109485D01*
X0152644Y0113128D01*
X0150758Y0116395D01*
X0148091Y0119062D01*
X0144824Y0120947D01*
X0141181Y0121924D01*
X0139295Y0122047D01*
X0076405Y0122047D01*
X0076768Y0121929D01*
X0077441Y0121586D01*
X0078052Y0121142D01*
X0078586Y0120608D01*
X0079031Y0119997D01*
X0079374Y0119324D01*
X0079607Y0118605D01*
X0079725Y0117859D01*
X0079725Y0117781D01*
X0075225Y0117781D01*
X0075225Y0117181D01*
X0075225Y0112681D01*
X0075303Y0112681D01*
X0076049Y0112799D01*
X0076768Y0113033D01*
X0077441Y0113376D01*
X0078052Y0113820D01*
X0078586Y0114354D01*
X0079031Y0114965D01*
X0079374Y0115639D01*
X0079607Y0116357D01*
X0079725Y0117103D01*
X0079725Y0117181D01*
X0075225Y0117181D01*
X0074625Y0117181D01*
X0070125Y0117181D01*
X0070125Y0117103D01*
X0070243Y0116357D01*
X0070477Y0115639D01*
X0070820Y0114965D01*
X0071264Y0114354D01*
X0071798Y0113820D01*
X0072409Y0113376D01*
X0073083Y0113033D01*
X0073801Y0112799D01*
X0074547Y0112681D01*
X0074625Y0112681D01*
X0074625Y0117181D01*
X0074625Y0117781D01*
X0070125Y0117781D01*
X0070125Y0117859D01*
X0070243Y0118605D01*
X0070477Y0119324D01*
X0070820Y0119997D01*
X0071264Y0120608D01*
X0071798Y0121142D01*
X0072409Y0121586D01*
X0073083Y0121929D01*
X0073445Y0122047D01*
X0025122Y0122047D01*
X0024094Y0121966D01*
X0022137Y0121331D01*
X0021926Y0121177D01*
X0022221Y0121299D01*
X0023693Y0121299D01*
X0023720Y0121288D01*
X0023796Y0121319D01*
X0025267Y0121319D01*
X0026627Y0120756D01*
X0027668Y0119715D01*
X0028231Y0118355D01*
X0028231Y0116883D01*
X0027668Y0115523D01*
X0026627Y0114482D01*
X0025267Y0113919D01*
X0023796Y0113919D01*
X0023768Y0113930D01*
X0023693Y0113899D01*
X0022221Y0113899D01*
X0020861Y0114462D01*
X0019820Y0115503D01*
X0019257Y0116863D01*
X0019257Y0118335D01*
X0019364Y0118595D01*
X0019265Y0118458D01*
X0018629Y0116502D01*
X0018629Y0116502D01*
X0018548Y0115473D01*
X0018548Y0042436D01*
X0018726Y0042436D01*
X0018675Y0042996D01*
X0019018Y0044097D01*
X0019478Y0044649D01*
X0019478Y0054381D01*
X0020005Y0054909D01*
X0027719Y0054909D01*
X0028246Y0054381D01*
X0028246Y0050308D01*
X0030856Y0049889D01*
X0030856Y0050531D01*
X0031383Y0051058D01*
X0034885Y0051058D01*
X0035412Y0050531D01*
X0035412Y0048726D01*
X0035436Y0048693D01*
X0035456Y0048615D01*
X0035456Y0050329D01*
X0035545Y0050660D01*
X0035716Y0050956D01*
X0035958Y0051199D01*
X0036254Y0051370D01*
X0036585Y0051458D01*
X0037834Y0051458D01*
X0037834Y0047899D01*
X0038434Y0047899D01*
X0038434Y0051458D01*
X0039683Y0051458D01*
X0040014Y0051370D01*
X0040310Y0051199D01*
X0040552Y0050956D01*
X0040723Y0050660D01*
X0040812Y0050329D01*
X0040812Y0048525D01*
X0040856Y0048636D01*
X0040856Y0050531D01*
X0041383Y0051058D01*
X0044885Y0051058D01*
X0045412Y0050531D01*
X0045412Y0048631D01*
X0045628Y0048125D01*
X0045660Y0045340D01*
X0045856Y0045340D01*
X0045856Y0050531D01*
X0046383Y0051058D01*
X0049885Y0051058D01*
X0050022Y0050921D01*
X0056781Y0055474D01*
X0056781Y0059941D01*
X0057215Y0060374D01*
X0054581Y0063008D01*
X0054581Y0083216D01*
X0041702Y0096096D01*
X0036190Y0096403D01*
X0036956Y0095637D01*
X0037455Y0094432D01*
X0037455Y0093128D01*
X0036956Y0091923D01*
X0036034Y0091001D01*
X0034829Y0090502D01*
X0033525Y0090502D01*
X0032320Y0091001D01*
X0031398Y0091923D01*
X0030899Y0093128D01*
X0030899Y0094432D01*
X0031398Y0095637D01*
X0032303Y0096542D01*
X0030852Y0096542D01*
X0030324Y0097069D01*
X0030324Y0099389D01*
X0030444Y0099509D01*
X0030324Y0099628D01*
X0030324Y0101948D01*
X0030444Y0102068D01*
X0030324Y0102187D01*
X0030324Y0104507D01*
X0030444Y0104627D01*
X0030324Y0104746D01*
X0030324Y0106739D01*
X0030184Y0106880D01*
X0030013Y0107176D01*
X0029924Y0107507D01*
X0029924Y0108372D01*
X0033887Y0108372D01*
X0033887Y0108559D01*
X0029924Y0108559D01*
X0029924Y0109424D01*
X0030013Y0109755D01*
X0030184Y0110051D01*
X0030426Y0110293D01*
X0030723Y0110464D01*
X0031053Y0110553D01*
X0031883Y0110553D01*
X0031398Y0111038D01*
X0030899Y0112242D01*
X0030899Y0113547D01*
X0031398Y0114751D01*
X0032320Y0115673D01*
X0033525Y0116172D01*
X0034829Y0116172D01*
X0036034Y0115673D01*
X0036956Y0114751D01*
X0037455Y0113547D01*
X0037455Y0112242D01*
X0036956Y0111038D01*
X0036471Y0110553D01*
X0036907Y0110553D01*
X0037238Y0110464D01*
X0037534Y0110293D01*
X0037776Y0110051D01*
X0037948Y0109755D01*
X0038036Y0109424D01*
X0038036Y0108559D01*
X0034074Y0108559D01*
X0034074Y0108372D01*
X0038036Y0108372D01*
X0038036Y0107507D01*
X0037948Y0107176D01*
X0037776Y0106880D01*
X0037636Y0106739D01*
X0037636Y0104746D01*
X0037517Y0104627D01*
X0037636Y0104507D01*
X0037636Y0102187D01*
X0037517Y0102068D01*
X0037636Y0101948D01*
X0037636Y0099728D01*
X0042310Y0099467D01*
X0042618Y0099723D01*
X0042618Y0100632D01*
X0043900Y0101914D01*
X0045714Y0101914D01*
X0046996Y0100632D01*
X0046996Y0098818D01*
X0045714Y0097536D01*
X0045069Y0097536D01*
X0057981Y0084625D01*
X0057981Y0071891D01*
X0060924Y0071891D01*
X0060924Y0067742D01*
X0061524Y0067742D01*
X0061524Y0071891D01*
X0064939Y0071891D01*
X0065269Y0071803D01*
X0065566Y0071632D01*
X0065808Y0071390D01*
X0065979Y0071093D01*
X0066068Y0070762D01*
X0066068Y0067742D01*
X0061524Y0067742D01*
X0061524Y0067142D01*
X0061524Y0062992D01*
X0064939Y0062992D01*
X0065269Y0063081D01*
X0065566Y0063252D01*
X0065808Y0063494D01*
X0065979Y0063790D01*
X0066068Y0064121D01*
X0066068Y0067142D01*
X0061524Y0067142D01*
X0060924Y0067142D01*
X0060924Y0062992D01*
X0059405Y0062992D01*
X0061930Y0060468D01*
X0065141Y0060468D01*
X0065668Y0059941D01*
X0065668Y0052896D01*
X0065141Y0052369D01*
X0058256Y0052369D01*
X0050412Y0047084D01*
X0050412Y0045340D01*
X0052416Y0045340D01*
X0052705Y0045629D01*
X0054519Y0045629D01*
X0055801Y0044347D01*
X0055801Y0042830D01*
X0056316Y0042404D01*
X0056677Y0042161D01*
X0056757Y0042040D01*
X0056869Y0041947D01*
X0057073Y0041562D01*
X0057314Y0041199D01*
X0057341Y0041056D01*
X0057410Y0040928D01*
X0057419Y0040830D01*
X0063898Y0040830D01*
X0065331Y0040236D01*
X0066428Y0039139D01*
X0067022Y0037706D01*
X0067022Y0036154D01*
X0066428Y0034721D01*
X0065331Y0033624D01*
X0063898Y0033030D01*
X0056346Y0033030D01*
X0055682Y0033305D01*
X0048132Y0031606D01*
X0048132Y0024628D01*
X0047605Y0024101D01*
X0037017Y0024101D01*
X0036489Y0024628D01*
X0036489Y0041909D01*
X0037017Y0042436D01*
X0040693Y0042436D01*
X0040670Y0044447D01*
X0040552Y0044242D01*
X0040310Y0044000D01*
X0040014Y0043829D01*
X0039683Y0043740D01*
X0038434Y0043740D01*
X0038434Y0047299D01*
X0037834Y0047299D01*
X0037834Y0043740D01*
X0036585Y0043740D01*
X0036254Y0043829D01*
X0035958Y0044000D01*
X0035716Y0044242D01*
X0035545Y0044538D01*
X0035456Y0044869D01*
X0035456Y0046612D01*
X0035449Y0046600D01*
X0035412Y0046470D01*
X0035412Y0044667D01*
X0034885Y0044140D01*
X0033584Y0044140D01*
X0033355Y0043851D01*
X0033233Y0043619D01*
X0033050Y0043465D01*
X0032901Y0043277D01*
X0032671Y0043149D01*
X0032470Y0042981D01*
X0032241Y0042910D01*
X0032032Y0042793D01*
X0031771Y0042763D01*
X0031521Y0042684D01*
X0031282Y0042706D01*
X0031044Y0042678D01*
X0030803Y0042747D01*
X0027856Y0040552D01*
X0027856Y0024628D01*
X0027329Y0024101D01*
X0018613Y0024101D01*
X0018629Y0023894D01*
X0019265Y0021937D01*
X0020474Y0020274D01*
X0020794Y0020041D02*
X0145851Y0020041D01*
X0146888Y0020639D02*
X0020208Y0020639D01*
X0019773Y0021238D02*
X0147924Y0021238D01*
X0148593Y0021836D02*
X0019338Y0021836D01*
X0019103Y0022435D02*
X0149192Y0022435D01*
X0149790Y0023033D02*
X0064946Y0023033D01*
X0064773Y0022945D02*
X0065376Y0023252D01*
X0065923Y0023650D01*
X0066402Y0024129D01*
X0066800Y0024676D01*
X0067107Y0025279D01*
X0067316Y0025923D01*
X0067422Y0026591D01*
X0067422Y0026630D01*
X0060422Y0026630D01*
X0060422Y0027230D01*
X0059822Y0027230D01*
X0059822Y0031230D01*
X0056784Y0031230D01*
X0056115Y0031124D01*
X0055471Y0030915D01*
X0054868Y0030608D01*
X0054321Y0030210D01*
X0053842Y0029731D01*
X0053444Y0029184D01*
X0053137Y0028581D01*
X0052928Y0027937D01*
X0052822Y0027268D01*
X0052822Y0027230D01*
X0059822Y0027230D01*
X0059822Y0026630D01*
X0052822Y0026630D01*
X0052822Y0026591D01*
X0052928Y0025923D01*
X0053137Y0025279D01*
X0053444Y0024676D01*
X0053842Y0024129D01*
X0054321Y0023650D01*
X0054868Y0023252D01*
X0055471Y0022945D01*
X0056115Y0022736D01*
X0056784Y0022630D01*
X0059822Y0022630D01*
X0059822Y0026630D01*
X0060422Y0026630D01*
X0060422Y0022630D01*
X0063460Y0022630D01*
X0064129Y0022736D01*
X0064773Y0022945D01*
X0065898Y0023632D02*
X0150389Y0023632D01*
X0150890Y0024230D02*
X0066476Y0024230D01*
X0066877Y0024829D02*
X0072617Y0024829D01*
X0072713Y0024733D02*
X0076980Y0024733D01*
X0079996Y0027749D01*
X0079996Y0032016D01*
X0076980Y0035033D01*
X0076758Y0035033D01*
X0077560Y0043215D01*
X0077812Y0043215D01*
X0078680Y0044082D01*
X0078680Y0051825D01*
X0077812Y0052692D01*
X0075424Y0052692D01*
X0074557Y0051825D01*
X0074557Y0044082D01*
X0074807Y0043832D01*
X0073945Y0035033D01*
X0072713Y0035033D01*
X0069696Y0032016D01*
X0069696Y0027749D01*
X0072713Y0024733D01*
X0072019Y0025427D02*
X0067155Y0025427D01*
X0067332Y0026026D02*
X0071420Y0026026D01*
X0070822Y0026624D02*
X0067422Y0026624D01*
X0067422Y0027230D02*
X0067422Y0027268D01*
X0067316Y0027937D01*
X0067107Y0028581D01*
X0066800Y0029184D01*
X0066402Y0029731D01*
X0065923Y0030210D01*
X0065376Y0030608D01*
X0064773Y0030915D01*
X0064129Y0031124D01*
X0063460Y0031230D01*
X0060422Y0031230D01*
X0060422Y0027230D01*
X0067422Y0027230D01*
X0067334Y0027821D02*
X0069696Y0027821D01*
X0069696Y0028420D02*
X0067159Y0028420D01*
X0066884Y0029018D02*
X0069696Y0029018D01*
X0069696Y0029617D02*
X0066485Y0029617D01*
X0065916Y0030215D02*
X0069696Y0030215D01*
X0069696Y0030814D02*
X0064971Y0030814D01*
X0064327Y0033208D02*
X0070888Y0033208D01*
X0070290Y0032609D02*
X0052590Y0032609D01*
X0055249Y0033208D02*
X0055917Y0033208D01*
X0055273Y0030814D02*
X0048132Y0030814D01*
X0048132Y0031412D02*
X0069696Y0031412D01*
X0069696Y0032011D02*
X0049930Y0032011D01*
X0048132Y0030215D02*
X0054328Y0030215D01*
X0053759Y0029617D02*
X0048132Y0029617D01*
X0048132Y0029018D02*
X0053360Y0029018D01*
X0053085Y0028420D02*
X0048132Y0028420D01*
X0048132Y0027821D02*
X0052910Y0027821D01*
X0052822Y0026624D02*
X0048132Y0026624D01*
X0048132Y0026026D02*
X0052912Y0026026D01*
X0053089Y0025427D02*
X0048132Y0025427D01*
X0048132Y0024829D02*
X0053367Y0024829D01*
X0053768Y0024230D02*
X0047734Y0024230D01*
X0048132Y0027223D02*
X0059822Y0027223D01*
X0059822Y0027821D02*
X0060422Y0027821D01*
X0060422Y0027223D02*
X0070223Y0027223D01*
X0077076Y0024829D02*
X0085806Y0024829D01*
X0085902Y0024733D02*
X0090169Y0024733D01*
X0093185Y0027749D01*
X0093185Y0032016D01*
X0090169Y0035033D01*
X0087692Y0035033D01*
X0083680Y0046332D01*
X0083680Y0051825D01*
X0082812Y0052692D01*
X0080424Y0052692D01*
X0079557Y0051825D01*
X0079557Y0044082D01*
X0080424Y0043215D01*
X0081815Y0043215D01*
X0085030Y0034161D01*
X0082885Y0032016D01*
X0082885Y0027749D01*
X0085902Y0024733D01*
X0085208Y0025427D02*
X0077674Y0025427D01*
X0078273Y0026026D02*
X0084609Y0026026D01*
X0084011Y0026624D02*
X0078871Y0026624D01*
X0079470Y0027223D02*
X0083412Y0027223D01*
X0082885Y0027821D02*
X0079996Y0027821D01*
X0079996Y0028420D02*
X0082885Y0028420D01*
X0082885Y0029018D02*
X0079996Y0029018D01*
X0079996Y0029617D02*
X0082885Y0029617D01*
X0082885Y0030215D02*
X0079996Y0030215D01*
X0079996Y0030814D02*
X0082885Y0030814D01*
X0082885Y0031412D02*
X0079996Y0031412D01*
X0079996Y0032011D02*
X0082885Y0032011D01*
X0083479Y0032609D02*
X0079403Y0032609D01*
X0078804Y0033208D02*
X0084077Y0033208D01*
X0084676Y0033806D02*
X0078206Y0033806D01*
X0077607Y0034405D02*
X0084944Y0034405D01*
X0084731Y0035003D02*
X0077009Y0035003D01*
X0076814Y0035602D02*
X0084519Y0035602D01*
X0084306Y0036200D02*
X0076873Y0036200D01*
X0076931Y0036799D02*
X0084094Y0036799D01*
X0083881Y0037397D02*
X0076990Y0037397D01*
X0077049Y0037996D02*
X0083669Y0037996D01*
X0083456Y0038594D02*
X0077107Y0038594D01*
X0077166Y0039193D02*
X0083244Y0039193D01*
X0083031Y0039791D02*
X0077225Y0039791D01*
X0077283Y0040390D02*
X0082818Y0040390D01*
X0082606Y0040988D02*
X0077342Y0040988D01*
X0077401Y0041587D02*
X0082393Y0041587D01*
X0082181Y0042186D02*
X0077459Y0042186D01*
X0077518Y0042784D02*
X0081968Y0042784D01*
X0080256Y0043383D02*
X0077980Y0043383D01*
X0078578Y0043981D02*
X0079658Y0043981D01*
X0079557Y0044580D02*
X0078680Y0044580D01*
X0078680Y0045178D02*
X0079557Y0045178D01*
X0079557Y0045777D02*
X0078680Y0045777D01*
X0078680Y0046375D02*
X0079557Y0046375D01*
X0079557Y0046974D02*
X0078680Y0046974D01*
X0078680Y0047572D02*
X0079557Y0047572D01*
X0079557Y0048171D02*
X0078680Y0048171D01*
X0078680Y0048769D02*
X0079557Y0048769D01*
X0079557Y0049368D02*
X0078680Y0049368D01*
X0078680Y0049966D02*
X0079557Y0049966D01*
X0079557Y0050565D02*
X0078680Y0050565D01*
X0078680Y0051163D02*
X0079557Y0051163D01*
X0079557Y0051762D02*
X0078680Y0051762D01*
X0078144Y0052360D02*
X0080092Y0052360D01*
X0083144Y0052360D02*
X0085092Y0052360D01*
X0085424Y0052692D02*
X0084557Y0051825D01*
X0084557Y0044082D01*
X0085424Y0043215D01*
X0087812Y0043215D01*
X0087987Y0043390D01*
X0088777Y0042600D01*
X0088941Y0042435D01*
X0089761Y0041615D01*
X0091449Y0041615D01*
X0100530Y0032534D01*
X0100011Y0032016D01*
X0100011Y0027749D01*
X0103028Y0024733D01*
X0107295Y0024733D01*
X0110311Y0027749D01*
X0110311Y0032016D01*
X0107295Y0035033D01*
X0103028Y0035033D01*
X0102510Y0034514D01*
X0093429Y0043595D01*
X0093311Y0043713D01*
X0093680Y0044082D01*
X0093680Y0051825D01*
X0092812Y0052692D01*
X0091974Y0052692D01*
X0091356Y0055406D01*
X0091356Y0055828D01*
X0091231Y0055953D01*
X0091192Y0056125D01*
X0090834Y0056350D01*
X0090535Y0056648D01*
X0090359Y0056648D01*
X0090210Y0056742D01*
X0089798Y0056648D01*
X0078421Y0056648D01*
X0079224Y0056981D01*
X0080088Y0057845D01*
X0080556Y0058974D01*
X0080556Y0060196D01*
X0080088Y0061325D01*
X0079224Y0062189D01*
X0078095Y0062657D01*
X0076873Y0062657D01*
X0075744Y0062189D01*
X0074880Y0061325D01*
X0074413Y0060196D01*
X0074413Y0058974D01*
X0074639Y0058429D01*
X0073011Y0059656D01*
X0073011Y0060459D01*
X0072327Y0061143D01*
X0073475Y0061143D01*
X0074295Y0061963D01*
X0074459Y0062127D01*
X0074459Y0062127D01*
X0075249Y0062917D01*
X0075424Y0062743D01*
X0077812Y0062743D01*
X0078680Y0063610D01*
X0078680Y0071352D01*
X0077812Y0072220D01*
X0076457Y0072220D01*
X0077112Y0073203D01*
X0079419Y0073203D01*
X0081336Y0075120D01*
X0082156Y0075940D01*
X0082156Y0092732D01*
X0102958Y0113534D01*
X0104050Y0113081D01*
X0105800Y0113081D01*
X0107418Y0113751D01*
X0108655Y0114989D01*
X0109325Y0116606D01*
X0109325Y0118356D01*
X0108655Y0119973D01*
X0107418Y0121211D01*
X0105800Y0121881D01*
X0104050Y0121881D01*
X0102433Y0121211D01*
X0101195Y0119973D01*
X0100525Y0118356D01*
X0100525Y0116606D01*
X0100978Y0115513D01*
X0096325Y0110861D01*
X0096325Y0113298D01*
X0097418Y0113751D01*
X0098655Y0114989D01*
X0099325Y0116606D01*
X0099325Y0118356D01*
X0098655Y0119973D01*
X0097418Y0121211D01*
X0095800Y0121881D01*
X0094050Y0121881D01*
X0092433Y0121211D01*
X0091195Y0119973D01*
X0090525Y0118356D01*
X0090525Y0116606D01*
X0091195Y0114989D01*
X0092433Y0113751D01*
X0093525Y0113298D01*
X0093525Y0110324D01*
X0067957Y0084755D01*
X0067957Y0062947D01*
X0068777Y0062127D01*
X0069539Y0061365D01*
X0068633Y0060459D01*
X0068633Y0058646D01*
X0069915Y0057363D01*
X0071400Y0057363D01*
X0075611Y0054189D01*
X0075952Y0053848D01*
X0076063Y0053848D01*
X0076152Y0053781D01*
X0076630Y0053848D01*
X0088839Y0053848D01*
X0089557Y0050698D01*
X0089557Y0046995D01*
X0088680Y0047872D01*
X0088680Y0051825D01*
X0087812Y0052692D01*
X0085424Y0052692D01*
X0084557Y0051762D02*
X0083680Y0051762D01*
X0083680Y0051163D02*
X0084557Y0051163D01*
X0084557Y0050565D02*
X0083680Y0050565D01*
X0083680Y0049966D02*
X0084557Y0049966D01*
X0084557Y0049368D02*
X0083680Y0049368D01*
X0083680Y0048769D02*
X0084557Y0048769D01*
X0084557Y0048171D02*
X0083680Y0048171D01*
X0083680Y0047572D02*
X0084557Y0047572D01*
X0084557Y0046974D02*
X0083680Y0046974D01*
X0083680Y0046375D02*
X0084557Y0046375D01*
X0084557Y0045777D02*
X0083877Y0045777D01*
X0084089Y0045178D02*
X0084557Y0045178D01*
X0084557Y0044580D02*
X0084302Y0044580D01*
X0084514Y0043981D02*
X0084658Y0043981D01*
X0084727Y0043383D02*
X0085256Y0043383D01*
X0084940Y0042784D02*
X0088592Y0042784D01*
X0087994Y0043383D02*
X0087980Y0043383D01*
X0089191Y0042186D02*
X0085152Y0042186D01*
X0085365Y0041587D02*
X0091477Y0041587D01*
X0092076Y0040988D02*
X0085577Y0040988D01*
X0085790Y0040390D02*
X0092674Y0040390D01*
X0093273Y0039791D02*
X0086002Y0039791D01*
X0086215Y0039193D02*
X0093871Y0039193D01*
X0094470Y0038594D02*
X0086427Y0038594D01*
X0086640Y0037996D02*
X0095068Y0037996D01*
X0095667Y0037397D02*
X0086852Y0037397D01*
X0087065Y0036799D02*
X0096265Y0036799D01*
X0096864Y0036200D02*
X0087278Y0036200D01*
X0087490Y0035602D02*
X0097462Y0035602D01*
X0098061Y0035003D02*
X0090198Y0035003D01*
X0090796Y0034405D02*
X0098659Y0034405D01*
X0099258Y0033806D02*
X0091395Y0033806D01*
X0091993Y0033208D02*
X0099856Y0033208D01*
X0100455Y0032609D02*
X0092592Y0032609D01*
X0093185Y0032011D02*
X0100011Y0032011D01*
X0100011Y0031412D02*
X0093185Y0031412D01*
X0093185Y0030814D02*
X0100011Y0030814D01*
X0100011Y0030215D02*
X0093185Y0030215D01*
X0093185Y0029617D02*
X0100011Y0029617D01*
X0100011Y0029018D02*
X0093185Y0029018D01*
X0093185Y0028420D02*
X0100011Y0028420D01*
X0100011Y0027821D02*
X0093185Y0027821D01*
X0092659Y0027223D02*
X0100538Y0027223D01*
X0101137Y0026624D02*
X0092060Y0026624D01*
X0091462Y0026026D02*
X0101735Y0026026D01*
X0102334Y0025427D02*
X0090863Y0025427D01*
X0090265Y0024829D02*
X0102932Y0024829D01*
X0107391Y0024829D02*
X0114546Y0024829D01*
X0114642Y0024733D02*
X0118909Y0024733D01*
X0121926Y0027749D01*
X0121926Y0032016D01*
X0118909Y0035033D01*
X0114642Y0035033D01*
X0111626Y0032016D01*
X0111626Y0027749D01*
X0114642Y0024733D01*
X0113948Y0025427D02*
X0107989Y0025427D01*
X0108588Y0026026D02*
X0113349Y0026026D01*
X0112751Y0026624D02*
X0109186Y0026624D01*
X0109785Y0027223D02*
X0112152Y0027223D01*
X0111626Y0027821D02*
X0110311Y0027821D01*
X0110311Y0028420D02*
X0111626Y0028420D01*
X0111626Y0029018D02*
X0110311Y0029018D01*
X0110311Y0029617D02*
X0111626Y0029617D01*
X0111626Y0030215D02*
X0110311Y0030215D01*
X0110311Y0030814D02*
X0111626Y0030814D01*
X0111626Y0031412D02*
X0110311Y0031412D01*
X0110311Y0032011D02*
X0111626Y0032011D01*
X0112219Y0032609D02*
X0109718Y0032609D01*
X0109119Y0033208D02*
X0112818Y0033208D01*
X0113416Y0033806D02*
X0108521Y0033806D01*
X0107922Y0034405D02*
X0114015Y0034405D01*
X0114613Y0035003D02*
X0107324Y0035003D01*
X0102999Y0035003D02*
X0102021Y0035003D01*
X0101422Y0035602D02*
X0153743Y0035602D01*
X0153743Y0036200D02*
X0100824Y0036200D01*
X0100225Y0036799D02*
X0153743Y0036799D01*
X0153743Y0037397D02*
X0099627Y0037397D01*
X0099028Y0037996D02*
X0153743Y0037996D01*
X0153743Y0038594D02*
X0098430Y0038594D01*
X0097831Y0039193D02*
X0153743Y0039193D01*
X0153743Y0039791D02*
X0097233Y0039791D01*
X0096634Y0040390D02*
X0153743Y0040390D01*
X0153743Y0040988D02*
X0096035Y0040988D01*
X0095437Y0041587D02*
X0153743Y0041587D01*
X0153743Y0042186D02*
X0094838Y0042186D01*
X0094240Y0042784D02*
X0153743Y0042784D01*
X0153743Y0043383D02*
X0103320Y0043383D01*
X0103152Y0043215D02*
X0103680Y0043742D01*
X0103680Y0046751D01*
X0106624Y0047548D01*
X0106624Y0046990D01*
X0107151Y0046463D01*
X0114983Y0046463D01*
X0115510Y0046990D01*
X0115510Y0049792D01*
X0118512Y0050484D01*
X0118704Y0050292D01*
X0120517Y0050292D01*
X0121799Y0051574D01*
X0121799Y0053388D01*
X0121414Y0053773D01*
X0132275Y0093599D01*
X0132328Y0093599D01*
X0133610Y0094881D01*
X0133610Y0096695D01*
X0132328Y0097977D01*
X0130515Y0097977D01*
X0129232Y0096695D01*
X0129232Y0094881D01*
X0129618Y0094496D01*
X0118756Y0054670D01*
X0118704Y0054670D01*
X0117855Y0053821D01*
X0115510Y0053281D01*
X0115510Y0054035D01*
X0114983Y0054562D01*
X0107151Y0054562D01*
X0106624Y0054035D01*
X0106624Y0051070D01*
X0103680Y0050273D01*
X0103680Y0052165D01*
X0103152Y0052692D01*
X0100084Y0052692D01*
X0099557Y0052165D01*
X0099557Y0043742D01*
X0100084Y0043215D01*
X0103152Y0043215D01*
X0103680Y0043981D02*
X0153743Y0043981D01*
X0153743Y0044580D02*
X0103680Y0044580D01*
X0103680Y0045178D02*
X0153743Y0045178D01*
X0153743Y0045777D02*
X0134064Y0045777D01*
X0132855Y0045276D02*
X0135503Y0046373D01*
X0137530Y0048400D01*
X0138627Y0051048D01*
X0138627Y0053914D01*
X0137530Y0056563D01*
X0135503Y0058590D01*
X0132855Y0059687D01*
X0129988Y0059687D01*
X0127340Y0058590D01*
X0125313Y0056563D01*
X0124216Y0053914D01*
X0124216Y0051048D01*
X0125313Y0048400D01*
X0127340Y0046373D01*
X0129988Y0045276D01*
X0132855Y0045276D01*
X0135505Y0046375D02*
X0153743Y0046375D01*
X0153743Y0046974D02*
X0136104Y0046974D01*
X0136702Y0047572D02*
X0153743Y0047572D01*
X0153743Y0048171D02*
X0137301Y0048171D01*
X0137683Y0048769D02*
X0153743Y0048769D01*
X0153743Y0049368D02*
X0137931Y0049368D01*
X0138179Y0049966D02*
X0153743Y0049966D01*
X0153743Y0050565D02*
X0138427Y0050565D01*
X0138627Y0051163D02*
X0153743Y0051163D01*
X0153743Y0051762D02*
X0138627Y0051762D01*
X0138627Y0052360D02*
X0153743Y0052360D01*
X0153743Y0052959D02*
X0138627Y0052959D01*
X0138627Y0053557D02*
X0153743Y0053557D01*
X0153743Y0054156D02*
X0138527Y0054156D01*
X0138279Y0054754D02*
X0153743Y0054754D01*
X0153743Y0055353D02*
X0138031Y0055353D01*
X0137783Y0055951D02*
X0153743Y0055951D01*
X0153743Y0056550D02*
X0137535Y0056550D01*
X0136944Y0057148D02*
X0153743Y0057148D01*
X0153743Y0057747D02*
X0136346Y0057747D01*
X0135747Y0058345D02*
X0153743Y0058345D01*
X0153743Y0058944D02*
X0134648Y0058944D01*
X0133203Y0059542D02*
X0153743Y0059542D01*
X0153743Y0060141D02*
X0123150Y0060141D01*
X0123314Y0060739D02*
X0153743Y0060739D01*
X0153743Y0061338D02*
X0123477Y0061338D01*
X0123640Y0061936D02*
X0153743Y0061936D01*
X0153743Y0062535D02*
X0123803Y0062535D01*
X0123967Y0063133D02*
X0147058Y0063133D01*
X0147498Y0062951D02*
X0148652Y0062951D01*
X0149718Y0063393D01*
X0150533Y0064208D01*
X0150975Y0065274D01*
X0150975Y0066428D01*
X0150533Y0067494D01*
X0149718Y0068310D01*
X0148652Y0068751D01*
X0147498Y0068751D01*
X0146432Y0068310D01*
X0145616Y0067494D01*
X0145175Y0066428D01*
X0145175Y0065274D01*
X0145616Y0064208D01*
X0146432Y0063393D01*
X0147498Y0062951D01*
X0149092Y0063133D02*
X0153743Y0063133D01*
X0153743Y0063732D02*
X0150057Y0063732D01*
X0150584Y0064330D02*
X0153743Y0064330D01*
X0153743Y0064929D02*
X0150832Y0064929D01*
X0150975Y0065527D02*
X0153743Y0065527D01*
X0153743Y0066126D02*
X0150975Y0066126D01*
X0150852Y0066724D02*
X0153743Y0066724D01*
X0153743Y0067323D02*
X0150604Y0067323D01*
X0150106Y0067921D02*
X0153743Y0067921D01*
X0153743Y0068520D02*
X0149210Y0068520D01*
X0146940Y0068520D02*
X0125436Y0068520D01*
X0125599Y0069119D02*
X0153743Y0069119D01*
X0153743Y0069717D02*
X0125762Y0069717D01*
X0125925Y0070316D02*
X0153743Y0070316D01*
X0153743Y0070914D02*
X0126089Y0070914D01*
X0126252Y0071513D02*
X0153743Y0071513D01*
X0153743Y0072111D02*
X0126415Y0072111D01*
X0126578Y0072710D02*
X0153743Y0072710D01*
X0153743Y0073308D02*
X0126741Y0073308D01*
X0126905Y0073907D02*
X0153743Y0073907D01*
X0153743Y0074505D02*
X0127068Y0074505D01*
X0127231Y0075104D02*
X0147130Y0075104D01*
X0147498Y0074951D02*
X0148652Y0074951D01*
X0149718Y0075393D01*
X0150533Y0076208D01*
X0150975Y0077274D01*
X0150975Y0078428D01*
X0150533Y0079494D01*
X0149718Y0080310D01*
X0148652Y0080751D01*
X0147498Y0080751D01*
X0146432Y0080310D01*
X0145616Y0079494D01*
X0145175Y0078428D01*
X0145175Y0077274D01*
X0145616Y0076208D01*
X0146432Y0075393D01*
X0147498Y0074951D01*
X0149020Y0075104D02*
X0153743Y0075104D01*
X0153743Y0075702D02*
X0150027Y0075702D01*
X0150571Y0076301D02*
X0153743Y0076301D01*
X0153743Y0076899D02*
X0150819Y0076899D01*
X0150975Y0077498D02*
X0153743Y0077498D01*
X0153743Y0078096D02*
X0150975Y0078096D01*
X0150864Y0078695D02*
X0153743Y0078695D01*
X0153743Y0079293D02*
X0150616Y0079293D01*
X0150135Y0079892D02*
X0153743Y0079892D01*
X0153743Y0080490D02*
X0149282Y0080490D01*
X0146868Y0080490D02*
X0128700Y0080490D01*
X0128537Y0079892D02*
X0146014Y0079892D01*
X0145533Y0079293D02*
X0128374Y0079293D01*
X0128211Y0078695D02*
X0145285Y0078695D01*
X0145175Y0078096D02*
X0128047Y0078096D01*
X0127884Y0077498D02*
X0145175Y0077498D01*
X0145330Y0076899D02*
X0127721Y0076899D01*
X0127558Y0076301D02*
X0145578Y0076301D01*
X0146123Y0075702D02*
X0127394Y0075702D01*
X0124655Y0076301D02*
X0101202Y0076301D01*
X0101801Y0076899D02*
X0124819Y0076899D01*
X0124982Y0077498D02*
X0102399Y0077498D01*
X0102474Y0077572D02*
X0103294Y0078392D01*
X0103294Y0079919D01*
X0104083Y0080708D01*
X0104083Y0082522D01*
X0104000Y0082604D01*
X0108563Y0082604D01*
X0109383Y0083424D01*
X0132907Y0106948D01*
X0133716Y0106613D01*
X0135268Y0106613D01*
X0136701Y0107206D01*
X0137798Y0108303D01*
X0138392Y0109737D01*
X0138392Y0111288D01*
X0137798Y0112722D01*
X0136701Y0113819D01*
X0135268Y0114413D01*
X0133716Y0114413D01*
X0132283Y0113819D01*
X0131186Y0112722D01*
X0130592Y0111288D01*
X0130592Y0109737D01*
X0130927Y0108928D01*
X0107404Y0085404D01*
X0095729Y0085404D01*
X0094909Y0084584D01*
X0082957Y0072631D01*
X0082957Y0072075D01*
X0082812Y0072220D01*
X0080424Y0072220D01*
X0079557Y0071352D01*
X0079557Y0063610D01*
X0080424Y0062743D01*
X0082812Y0062743D01*
X0083680Y0063610D01*
X0083680Y0067563D01*
X0084557Y0068440D01*
X0084557Y0063610D01*
X0085171Y0062996D01*
X0085157Y0061675D01*
X0084350Y0060868D01*
X0084350Y0059055D01*
X0085633Y0057772D01*
X0087446Y0057772D01*
X0088728Y0059055D01*
X0088728Y0060868D01*
X0087957Y0061639D01*
X0087970Y0062901D01*
X0088680Y0063610D01*
X0088680Y0071352D01*
X0087812Y0072220D01*
X0086505Y0072220D01*
X0096889Y0082604D01*
X0099787Y0082604D01*
X0099705Y0082522D01*
X0099705Y0080708D01*
X0100494Y0079919D01*
X0100494Y0079552D01*
X0092987Y0072045D01*
X0092812Y0072220D01*
X0090424Y0072220D01*
X0089557Y0071352D01*
X0089557Y0063610D01*
X0090424Y0062743D01*
X0092812Y0062743D01*
X0093680Y0063610D01*
X0093680Y0067563D01*
X0094557Y0068440D01*
X0094557Y0063610D01*
X0095424Y0062743D01*
X0097401Y0062743D01*
X0100218Y0057050D01*
X0100098Y0056931D01*
X0100098Y0055118D01*
X0101381Y0053835D01*
X0103194Y0053835D01*
X0104476Y0055118D01*
X0104476Y0056931D01*
X0103194Y0058213D01*
X0102766Y0058213D01*
X0100713Y0062363D01*
X0100790Y0062343D01*
X0101337Y0062343D01*
X0101337Y0067200D01*
X0101899Y0067200D01*
X0101899Y0062343D01*
X0102446Y0062343D01*
X0102925Y0062471D01*
X0103354Y0062718D01*
X0103704Y0063068D01*
X0103951Y0063497D01*
X0104080Y0063976D01*
X0104080Y0067200D01*
X0101899Y0067200D01*
X0101899Y0067762D01*
X0101337Y0067762D01*
X0101337Y0067200D01*
X0099157Y0067200D01*
X0099157Y0065508D01*
X0098680Y0066472D01*
X0098680Y0071352D01*
X0097812Y0072220D01*
X0097121Y0072220D01*
X0102474Y0077572D01*
X0102998Y0078096D02*
X0125145Y0078096D01*
X0125308Y0078695D02*
X0103294Y0078695D01*
X0103294Y0079293D02*
X0110976Y0079293D01*
X0110581Y0079457D02*
X0111635Y0079020D01*
X0112777Y0079020D01*
X0113831Y0079457D01*
X0114638Y0080264D01*
X0115074Y0081318D01*
X0115074Y0082459D01*
X0114638Y0083514D01*
X0113831Y0084320D01*
X0112777Y0084757D01*
X0111635Y0084757D01*
X0110581Y0084320D01*
X0109774Y0083514D01*
X0109337Y0082459D01*
X0109337Y0081318D01*
X0109774Y0080264D01*
X0110581Y0079457D01*
X0110146Y0079892D02*
X0103294Y0079892D01*
X0103865Y0080490D02*
X0109680Y0080490D01*
X0109432Y0081089D02*
X0104083Y0081089D01*
X0104083Y0081687D02*
X0109337Y0081687D01*
X0109337Y0082286D02*
X0104083Y0082286D01*
X0100494Y0079892D02*
X0094177Y0079892D01*
X0094776Y0080490D02*
X0099923Y0080490D01*
X0099705Y0081089D02*
X0095374Y0081089D01*
X0095973Y0081687D02*
X0099705Y0081687D01*
X0099705Y0082286D02*
X0096571Y0082286D01*
X0094407Y0084081D02*
X0082156Y0084081D01*
X0082156Y0083483D02*
X0093808Y0083483D01*
X0093210Y0082884D02*
X0082156Y0082884D01*
X0082156Y0082286D02*
X0092611Y0082286D01*
X0092013Y0081687D02*
X0082156Y0081687D01*
X0082156Y0081089D02*
X0091414Y0081089D01*
X0090816Y0080490D02*
X0082156Y0080490D01*
X0082156Y0079892D02*
X0090217Y0079892D01*
X0089619Y0079293D02*
X0082156Y0079293D01*
X0082156Y0078695D02*
X0089020Y0078695D01*
X0088422Y0078096D02*
X0082156Y0078096D01*
X0082156Y0077498D02*
X0087823Y0077498D01*
X0087225Y0076899D02*
X0082156Y0076899D01*
X0082156Y0076301D02*
X0086626Y0076301D01*
X0086028Y0075702D02*
X0081918Y0075702D01*
X0081336Y0075120D02*
X0081336Y0075120D01*
X0081320Y0075104D02*
X0085429Y0075104D01*
X0084831Y0074505D02*
X0080721Y0074505D01*
X0080123Y0073907D02*
X0084232Y0073907D01*
X0083634Y0073308D02*
X0079524Y0073308D01*
X0080315Y0072111D02*
X0077921Y0072111D01*
X0078519Y0071513D02*
X0079717Y0071513D01*
X0079557Y0070914D02*
X0078680Y0070914D01*
X0078680Y0070316D02*
X0079557Y0070316D01*
X0079557Y0069717D02*
X0078680Y0069717D01*
X0078680Y0069119D02*
X0079557Y0069119D01*
X0079557Y0068520D02*
X0078680Y0068520D01*
X0078680Y0067921D02*
X0079557Y0067921D01*
X0079557Y0067323D02*
X0078680Y0067323D01*
X0078680Y0066724D02*
X0079557Y0066724D01*
X0079557Y0066126D02*
X0078680Y0066126D01*
X0078680Y0065527D02*
X0079557Y0065527D01*
X0079557Y0064929D02*
X0078680Y0064929D01*
X0078680Y0064330D02*
X0079557Y0064330D01*
X0079557Y0063732D02*
X0078680Y0063732D01*
X0078203Y0063133D02*
X0080033Y0063133D01*
X0079477Y0061936D02*
X0085160Y0061936D01*
X0085166Y0062535D02*
X0078389Y0062535D01*
X0076579Y0062535D02*
X0074867Y0062535D01*
X0074269Y0061936D02*
X0075492Y0061936D01*
X0074893Y0061338D02*
X0073670Y0061338D01*
X0072730Y0060739D02*
X0074638Y0060739D01*
X0074413Y0060141D02*
X0073011Y0060141D01*
X0073161Y0059542D02*
X0074413Y0059542D01*
X0074425Y0058944D02*
X0073955Y0058944D01*
X0072479Y0056550D02*
X0065668Y0056550D01*
X0065668Y0057148D02*
X0071685Y0057148D01*
X0073273Y0055951D02*
X0065668Y0055951D01*
X0065668Y0055353D02*
X0074067Y0055353D01*
X0074861Y0054754D02*
X0065668Y0054754D01*
X0065668Y0054156D02*
X0075645Y0054156D01*
X0075092Y0052360D02*
X0073144Y0052360D01*
X0072812Y0052692D02*
X0070424Y0052692D01*
X0069557Y0051825D01*
X0069557Y0044082D01*
X0070195Y0043444D01*
X0070187Y0041981D01*
X0069390Y0041183D01*
X0069390Y0039370D01*
X0070672Y0038087D01*
X0072485Y0038087D01*
X0073768Y0039370D01*
X0073768Y0041183D01*
X0072987Y0041963D01*
X0072995Y0043398D01*
X0073680Y0044082D01*
X0073680Y0051825D01*
X0072812Y0052692D01*
X0073680Y0051762D02*
X0074557Y0051762D01*
X0074557Y0051163D02*
X0073680Y0051163D01*
X0073680Y0050565D02*
X0074557Y0050565D01*
X0074557Y0049966D02*
X0073680Y0049966D01*
X0073680Y0049368D02*
X0074557Y0049368D01*
X0074557Y0048769D02*
X0073680Y0048769D01*
X0073680Y0048171D02*
X0074557Y0048171D01*
X0074557Y0047572D02*
X0073680Y0047572D01*
X0073680Y0046974D02*
X0074557Y0046974D01*
X0074557Y0046375D02*
X0073680Y0046375D01*
X0073680Y0045777D02*
X0074557Y0045777D01*
X0074557Y0045178D02*
X0073680Y0045178D01*
X0073680Y0044580D02*
X0074557Y0044580D01*
X0074658Y0043981D02*
X0073578Y0043981D01*
X0072995Y0043383D02*
X0074763Y0043383D01*
X0074705Y0042784D02*
X0072992Y0042784D01*
X0072989Y0042186D02*
X0074646Y0042186D01*
X0074587Y0041587D02*
X0073364Y0041587D01*
X0073768Y0040988D02*
X0074529Y0040988D01*
X0074470Y0040390D02*
X0073768Y0040390D01*
X0073768Y0039791D02*
X0074411Y0039791D01*
X0074353Y0039193D02*
X0073591Y0039193D01*
X0072992Y0038594D02*
X0074294Y0038594D01*
X0074235Y0037996D02*
X0066902Y0037996D01*
X0067022Y0037397D02*
X0074176Y0037397D01*
X0074118Y0036799D02*
X0067022Y0036799D01*
X0067022Y0036200D02*
X0074059Y0036200D01*
X0074000Y0035602D02*
X0066793Y0035602D01*
X0066545Y0035003D02*
X0072684Y0035003D01*
X0072085Y0034405D02*
X0066112Y0034405D01*
X0065514Y0033806D02*
X0071487Y0033806D01*
X0070165Y0038594D02*
X0066654Y0038594D01*
X0066374Y0039193D02*
X0069566Y0039193D01*
X0069390Y0039791D02*
X0065776Y0039791D01*
X0064960Y0040390D02*
X0069390Y0040390D01*
X0069390Y0040988D02*
X0057377Y0040988D01*
X0057060Y0041587D02*
X0069794Y0041587D01*
X0070189Y0042186D02*
X0056640Y0042186D01*
X0055856Y0042784D02*
X0070192Y0042784D01*
X0070195Y0043383D02*
X0055801Y0043383D01*
X0055801Y0043981D02*
X0069658Y0043981D01*
X0069557Y0044580D02*
X0055568Y0044580D01*
X0054970Y0045178D02*
X0069557Y0045178D01*
X0069557Y0045777D02*
X0050412Y0045777D01*
X0050412Y0046375D02*
X0069557Y0046375D01*
X0069557Y0046974D02*
X0050412Y0046974D01*
X0051136Y0047572D02*
X0069557Y0047572D01*
X0069557Y0048171D02*
X0052025Y0048171D01*
X0052913Y0048769D02*
X0069557Y0048769D01*
X0069557Y0049368D02*
X0053802Y0049368D01*
X0054690Y0049966D02*
X0069557Y0049966D01*
X0069557Y0050565D02*
X0055578Y0050565D01*
X0056467Y0051163D02*
X0069557Y0051163D01*
X0069557Y0051762D02*
X0057355Y0051762D01*
X0058244Y0052360D02*
X0070092Y0052360D01*
X0065668Y0052959D02*
X0089041Y0052959D01*
X0088905Y0053557D02*
X0065668Y0053557D01*
X0065668Y0057747D02*
X0069532Y0057747D01*
X0068933Y0058345D02*
X0065668Y0058345D01*
X0065668Y0058944D02*
X0068633Y0058944D01*
X0068633Y0059542D02*
X0065668Y0059542D01*
X0065467Y0060141D02*
X0068633Y0060141D01*
X0068913Y0060739D02*
X0061658Y0060739D01*
X0061060Y0061338D02*
X0069511Y0061338D01*
X0068967Y0061936D02*
X0060461Y0061936D01*
X0059863Y0062535D02*
X0068369Y0062535D01*
X0068777Y0062127D02*
X0068777Y0062127D01*
X0067957Y0063133D02*
X0065361Y0063133D01*
X0065945Y0063732D02*
X0067957Y0063732D01*
X0067957Y0064330D02*
X0066068Y0064330D01*
X0066068Y0064929D02*
X0067957Y0064929D01*
X0067957Y0065527D02*
X0066068Y0065527D01*
X0066068Y0066126D02*
X0067957Y0066126D01*
X0067957Y0066724D02*
X0066068Y0066724D01*
X0066068Y0067921D02*
X0067957Y0067921D01*
X0067957Y0067323D02*
X0061524Y0067323D01*
X0061524Y0067921D02*
X0060924Y0067921D01*
X0060924Y0068520D02*
X0061524Y0068520D01*
X0061524Y0069119D02*
X0060924Y0069119D01*
X0060924Y0069717D02*
X0061524Y0069717D01*
X0061524Y0070316D02*
X0060924Y0070316D01*
X0060924Y0070914D02*
X0061524Y0070914D01*
X0061524Y0071513D02*
X0060924Y0071513D01*
X0057981Y0072111D02*
X0067957Y0072111D01*
X0067957Y0071513D02*
X0065685Y0071513D01*
X0066027Y0070914D02*
X0067957Y0070914D01*
X0067957Y0070316D02*
X0066068Y0070316D01*
X0066068Y0069717D02*
X0067957Y0069717D01*
X0067957Y0069119D02*
X0066068Y0069119D01*
X0066068Y0068520D02*
X0067957Y0068520D01*
X0067957Y0072710D02*
X0057981Y0072710D01*
X0057981Y0073308D02*
X0067957Y0073308D01*
X0067957Y0073907D02*
X0057981Y0073907D01*
X0057981Y0074505D02*
X0067957Y0074505D01*
X0067957Y0075104D02*
X0057981Y0075104D01*
X0057981Y0075702D02*
X0067957Y0075702D01*
X0067957Y0076301D02*
X0057981Y0076301D01*
X0057981Y0076899D02*
X0067957Y0076899D01*
X0067957Y0077498D02*
X0057981Y0077498D01*
X0057981Y0078096D02*
X0067957Y0078096D01*
X0067957Y0078695D02*
X0057981Y0078695D01*
X0057981Y0079293D02*
X0067957Y0079293D01*
X0067957Y0079892D02*
X0057981Y0079892D01*
X0057981Y0080490D02*
X0067957Y0080490D01*
X0067957Y0081089D02*
X0057981Y0081089D01*
X0057981Y0081687D02*
X0067957Y0081687D01*
X0067957Y0082286D02*
X0057981Y0082286D01*
X0057981Y0082884D02*
X0067957Y0082884D01*
X0067957Y0083483D02*
X0057981Y0083483D01*
X0057981Y0084081D02*
X0067957Y0084081D01*
X0067957Y0084680D02*
X0057926Y0084680D01*
X0057327Y0085278D02*
X0068480Y0085278D01*
X0069078Y0085877D02*
X0056729Y0085877D01*
X0056130Y0086475D02*
X0069677Y0086475D01*
X0070275Y0087074D02*
X0055532Y0087074D01*
X0054933Y0087672D02*
X0070874Y0087672D01*
X0071472Y0088271D02*
X0054335Y0088271D01*
X0053736Y0088869D02*
X0072071Y0088869D01*
X0072669Y0089468D02*
X0053138Y0089468D01*
X0052539Y0090066D02*
X0073268Y0090066D01*
X0073866Y0090665D02*
X0051941Y0090665D01*
X0051342Y0091263D02*
X0074465Y0091263D01*
X0075063Y0091862D02*
X0050744Y0091862D01*
X0050145Y0092460D02*
X0075662Y0092460D01*
X0076260Y0093059D02*
X0049547Y0093059D01*
X0048948Y0093657D02*
X0076859Y0093657D01*
X0077457Y0094256D02*
X0048350Y0094256D01*
X0047751Y0094855D02*
X0078056Y0094855D01*
X0078654Y0095453D02*
X0047153Y0095453D01*
X0046554Y0096052D02*
X0079253Y0096052D01*
X0079851Y0096650D02*
X0066392Y0096650D01*
X0065925Y0096457D02*
X0068574Y0097554D01*
X0070601Y0099581D01*
X0071698Y0102229D01*
X0071698Y0105095D01*
X0070601Y0107744D01*
X0068574Y0109771D01*
X0065925Y0110868D01*
X0063059Y0110868D01*
X0060411Y0109771D01*
X0058384Y0107744D01*
X0057287Y0105095D01*
X0057287Y0102229D01*
X0058384Y0099581D01*
X0060411Y0097554D01*
X0063059Y0096457D01*
X0065925Y0096457D01*
X0067837Y0097249D02*
X0080450Y0097249D01*
X0081049Y0097847D02*
X0068867Y0097847D01*
X0069466Y0098446D02*
X0081647Y0098446D01*
X0082246Y0099044D02*
X0070064Y0099044D01*
X0070626Y0099643D02*
X0082844Y0099643D01*
X0083443Y0100241D02*
X0070874Y0100241D01*
X0071122Y0100840D02*
X0084041Y0100840D01*
X0084640Y0101438D02*
X0071370Y0101438D01*
X0071618Y0102037D02*
X0085238Y0102037D01*
X0085837Y0102635D02*
X0071698Y0102635D01*
X0071698Y0103234D02*
X0086435Y0103234D01*
X0087034Y0103832D02*
X0071698Y0103832D01*
X0071698Y0104431D02*
X0087632Y0104431D01*
X0088231Y0105029D02*
X0071698Y0105029D01*
X0071477Y0105628D02*
X0088829Y0105628D01*
X0089428Y0106226D02*
X0071229Y0106226D01*
X0070981Y0106825D02*
X0090026Y0106825D01*
X0090625Y0107423D02*
X0070733Y0107423D01*
X0070323Y0108022D02*
X0091223Y0108022D01*
X0091822Y0108620D02*
X0069724Y0108620D01*
X0069126Y0109219D02*
X0092420Y0109219D01*
X0093019Y0109817D02*
X0068461Y0109817D01*
X0067016Y0110416D02*
X0093525Y0110416D01*
X0093525Y0111014D02*
X0036933Y0111014D01*
X0037194Y0111613D02*
X0093525Y0111613D01*
X0093525Y0112211D02*
X0037442Y0112211D01*
X0037455Y0112810D02*
X0073769Y0112810D01*
X0074625Y0112810D02*
X0075225Y0112810D01*
X0075225Y0113408D02*
X0074625Y0113408D01*
X0074625Y0114007D02*
X0075225Y0114007D01*
X0075225Y0114605D02*
X0074625Y0114605D01*
X0074625Y0115204D02*
X0075225Y0115204D01*
X0075225Y0115802D02*
X0074625Y0115802D01*
X0074625Y0116401D02*
X0075225Y0116401D01*
X0075225Y0116999D02*
X0074625Y0116999D01*
X0074625Y0117598D02*
X0028231Y0117598D01*
X0028231Y0118196D02*
X0070179Y0118196D01*
X0070305Y0118795D02*
X0028049Y0118795D01*
X0027801Y0119393D02*
X0070512Y0119393D01*
X0070817Y0119992D02*
X0027391Y0119992D01*
X0026792Y0120590D02*
X0071251Y0120590D01*
X0071862Y0121189D02*
X0025581Y0121189D01*
X0023543Y0121788D02*
X0072804Y0121788D01*
X0077046Y0121788D02*
X0083824Y0121788D01*
X0084050Y0121881D02*
X0082433Y0121211D01*
X0081195Y0119973D01*
X0080525Y0118356D01*
X0080525Y0116606D01*
X0081195Y0114989D01*
X0082433Y0113751D01*
X0084050Y0113081D01*
X0085800Y0113081D01*
X0087418Y0113751D01*
X0088655Y0114989D01*
X0089325Y0116606D01*
X0089325Y0118356D01*
X0088655Y0119973D01*
X0087418Y0121211D01*
X0085800Y0121881D01*
X0084050Y0121881D01*
X0082411Y0121189D02*
X0077988Y0121189D01*
X0078599Y0120590D02*
X0081812Y0120590D01*
X0081214Y0119992D02*
X0079033Y0119992D01*
X0079338Y0119393D02*
X0080955Y0119393D01*
X0080707Y0118795D02*
X0079545Y0118795D01*
X0079672Y0118196D02*
X0080525Y0118196D01*
X0080525Y0117598D02*
X0075225Y0117598D01*
X0079152Y0115204D02*
X0081106Y0115204D01*
X0080858Y0115802D02*
X0079427Y0115802D01*
X0079614Y0116401D02*
X0080610Y0116401D01*
X0080525Y0116999D02*
X0079709Y0116999D01*
X0078769Y0114605D02*
X0081578Y0114605D01*
X0082177Y0114007D02*
X0078239Y0114007D01*
X0077486Y0113408D02*
X0083260Y0113408D01*
X0086590Y0113408D02*
X0093260Y0113408D01*
X0093525Y0112810D02*
X0076082Y0112810D01*
X0072365Y0113408D02*
X0037455Y0113408D01*
X0037264Y0114007D02*
X0071611Y0114007D01*
X0071081Y0114605D02*
X0037017Y0114605D01*
X0036503Y0115204D02*
X0070698Y0115204D01*
X0070424Y0115802D02*
X0035723Y0115802D01*
X0032632Y0115802D02*
X0027784Y0115802D01*
X0028032Y0116401D02*
X0070236Y0116401D01*
X0070142Y0116999D02*
X0028231Y0116999D01*
X0027349Y0115204D02*
X0031851Y0115204D01*
X0031338Y0114605D02*
X0026751Y0114605D01*
X0025480Y0114007D02*
X0031090Y0114007D01*
X0030899Y0113408D02*
X0018548Y0113408D01*
X0018548Y0112810D02*
X0030899Y0112810D01*
X0030912Y0112211D02*
X0018548Y0112211D01*
X0018548Y0111613D02*
X0031160Y0111613D01*
X0031422Y0111014D02*
X0018548Y0111014D01*
X0018548Y0110416D02*
X0030639Y0110416D01*
X0030049Y0109817D02*
X0018548Y0109817D01*
X0018548Y0109219D02*
X0029924Y0109219D01*
X0029924Y0108620D02*
X0018548Y0108620D01*
X0018548Y0108022D02*
X0029924Y0108022D01*
X0029947Y0107423D02*
X0018548Y0107423D01*
X0018548Y0106825D02*
X0030239Y0106825D01*
X0030324Y0106226D02*
X0018548Y0106226D01*
X0018548Y0105628D02*
X0030324Y0105628D01*
X0030324Y0105029D02*
X0018548Y0105029D01*
X0018548Y0104431D02*
X0030324Y0104431D01*
X0030324Y0103832D02*
X0018548Y0103832D01*
X0018548Y0103234D02*
X0030324Y0103234D01*
X0030324Y0102635D02*
X0018548Y0102635D01*
X0018548Y0102037D02*
X0030413Y0102037D01*
X0030324Y0101438D02*
X0018548Y0101438D01*
X0018548Y0100840D02*
X0030324Y0100840D01*
X0030324Y0100241D02*
X0018548Y0100241D01*
X0018548Y0099643D02*
X0030324Y0099643D01*
X0030324Y0099044D02*
X0018548Y0099044D01*
X0018548Y0098446D02*
X0030324Y0098446D01*
X0030324Y0097847D02*
X0018548Y0097847D01*
X0018548Y0097249D02*
X0030324Y0097249D01*
X0030743Y0096650D02*
X0018548Y0096650D01*
X0018548Y0096052D02*
X0031813Y0096052D01*
X0031322Y0095453D02*
X0018548Y0095453D01*
X0018548Y0094855D02*
X0031074Y0094855D01*
X0030899Y0094256D02*
X0018548Y0094256D01*
X0018548Y0093657D02*
X0030899Y0093657D01*
X0030928Y0093059D02*
X0018548Y0093059D01*
X0018548Y0092460D02*
X0021507Y0092460D01*
X0020861Y0092193D02*
X0019820Y0091152D01*
X0019257Y0089792D01*
X0019257Y0088320D01*
X0019820Y0086960D01*
X0020861Y0085919D01*
X0022221Y0085356D01*
X0023693Y0085356D01*
X0023768Y0085387D01*
X0023796Y0085376D01*
X0025267Y0085376D01*
X0026627Y0085939D01*
X0027668Y0086980D01*
X0028231Y0088340D01*
X0028231Y0089812D01*
X0027668Y0091171D01*
X0026627Y0092212D01*
X0025267Y0092776D01*
X0023796Y0092776D01*
X0023720Y0092744D01*
X0023693Y0092756D01*
X0022221Y0092756D01*
X0020861Y0092193D01*
X0020530Y0091862D02*
X0018548Y0091862D01*
X0018548Y0091263D02*
X0019932Y0091263D01*
X0019618Y0090665D02*
X0018548Y0090665D01*
X0018548Y0090066D02*
X0019370Y0090066D01*
X0019257Y0089468D02*
X0018548Y0089468D01*
X0018548Y0088869D02*
X0019257Y0088869D01*
X0019277Y0088271D02*
X0018548Y0088271D01*
X0018548Y0087672D02*
X0019525Y0087672D01*
X0019773Y0087074D02*
X0018548Y0087074D01*
X0018548Y0086475D02*
X0020305Y0086475D01*
X0020963Y0085877D02*
X0018548Y0085877D01*
X0018548Y0085278D02*
X0052519Y0085278D01*
X0053118Y0084680D02*
X0018548Y0084680D01*
X0018548Y0084081D02*
X0053716Y0084081D01*
X0054315Y0083483D02*
X0018548Y0083483D01*
X0018548Y0082884D02*
X0054581Y0082884D01*
X0054581Y0082286D02*
X0018548Y0082286D01*
X0018548Y0081687D02*
X0054581Y0081687D01*
X0054581Y0081089D02*
X0018548Y0081089D01*
X0018548Y0080490D02*
X0049872Y0080490D01*
X0050022Y0080640D02*
X0049472Y0080090D01*
X0032946Y0079377D01*
X0032264Y0079366D01*
X0032246Y0079347D01*
X0032219Y0079346D01*
X0031759Y0078844D01*
X0031285Y0078354D01*
X0031285Y0078328D01*
X0031267Y0078308D01*
X0031297Y0077627D01*
X0031351Y0074325D01*
X0030869Y0074772D01*
X0030513Y0075108D01*
X0030505Y0075111D01*
X0030498Y0075117D01*
X0030041Y0075288D01*
X0029584Y0075461D01*
X0029574Y0075461D01*
X0029566Y0075464D01*
X0029078Y0075447D01*
X0028589Y0075432D01*
X0028581Y0075428D01*
X0028572Y0075428D01*
X0028182Y0075250D01*
X0027719Y0075712D01*
X0020005Y0075712D01*
X0019478Y0075185D01*
X0019478Y0064596D01*
X0020005Y0064069D01*
X0027719Y0064069D01*
X0028246Y0064596D01*
X0028246Y0067123D01*
X0028462Y0067129D01*
X0029370Y0067536D01*
X0029610Y0067791D01*
X0030856Y0067705D01*
X0030856Y0066321D01*
X0031383Y0065794D01*
X0034885Y0065794D01*
X0035412Y0066321D01*
X0035412Y0068206D01*
X0035650Y0068847D01*
X0035614Y0069841D01*
X0035412Y0070283D01*
X0035412Y0072185D01*
X0034885Y0072712D01*
X0034777Y0072712D01*
X0034723Y0076051D01*
X0035800Y0076097D01*
X0035531Y0075829D01*
X0035531Y0074015D01*
X0036450Y0073097D01*
X0036478Y0072712D01*
X0036383Y0072712D01*
X0035856Y0072185D01*
X0035856Y0066321D01*
X0036383Y0065794D01*
X0039885Y0065794D01*
X0040412Y0066321D01*
X0040412Y0072185D01*
X0039885Y0072712D01*
X0039285Y0072712D01*
X0039239Y0073345D01*
X0039909Y0074015D01*
X0039909Y0075829D01*
X0039482Y0076256D01*
X0042795Y0076399D01*
X0041831Y0075435D01*
X0041831Y0073622D01*
X0042359Y0073093D01*
X0042295Y0072712D01*
X0041383Y0072712D01*
X0040856Y0072185D01*
X0040856Y0066321D01*
X0041383Y0065794D01*
X0044885Y0065794D01*
X0045412Y0066321D01*
X0045412Y0072185D01*
X0045098Y0072498D01*
X0045101Y0072514D01*
X0046209Y0073622D01*
X0046209Y0075435D01*
X0045143Y0076500D01*
X0049593Y0076692D01*
X0050022Y0076262D01*
X0051836Y0076262D01*
X0053118Y0077545D01*
X0053118Y0079358D01*
X0051836Y0080640D01*
X0050022Y0080640D01*
X0051986Y0080490D02*
X0054581Y0080490D01*
X0054581Y0079892D02*
X0052584Y0079892D01*
X0053118Y0079293D02*
X0054581Y0079293D01*
X0054581Y0078695D02*
X0053118Y0078695D01*
X0053118Y0078096D02*
X0054581Y0078096D01*
X0054581Y0077498D02*
X0053071Y0077498D01*
X0052473Y0076899D02*
X0054581Y0076899D01*
X0054581Y0076301D02*
X0051874Y0076301D01*
X0049984Y0076301D02*
X0045343Y0076301D01*
X0045942Y0075702D02*
X0054581Y0075702D01*
X0054581Y0075104D02*
X0046209Y0075104D01*
X0046209Y0074505D02*
X0054581Y0074505D01*
X0054581Y0073907D02*
X0046209Y0073907D01*
X0045895Y0073308D02*
X0054581Y0073308D01*
X0054581Y0072710D02*
X0049887Y0072710D01*
X0049885Y0072712D02*
X0046383Y0072712D01*
X0045856Y0072185D01*
X0045856Y0066321D01*
X0046383Y0065794D01*
X0049885Y0065794D01*
X0050412Y0066321D01*
X0050412Y0067938D01*
X0050655Y0067947D01*
X0051381Y0067221D01*
X0053194Y0067221D01*
X0054476Y0068504D01*
X0054476Y0070317D01*
X0053194Y0071599D01*
X0051381Y0071599D01*
X0050526Y0070744D01*
X0050412Y0070740D01*
X0050412Y0072185D01*
X0049885Y0072712D01*
X0050412Y0072111D02*
X0054581Y0072111D01*
X0054581Y0071513D02*
X0053281Y0071513D01*
X0053879Y0070914D02*
X0054581Y0070914D01*
X0054581Y0070316D02*
X0054476Y0070316D01*
X0054476Y0069717D02*
X0054581Y0069717D01*
X0054581Y0069119D02*
X0054476Y0069119D01*
X0054476Y0068520D02*
X0054581Y0068520D01*
X0054581Y0067921D02*
X0053894Y0067921D01*
X0053296Y0067323D02*
X0054581Y0067323D01*
X0054581Y0066724D02*
X0050412Y0066724D01*
X0050412Y0067323D02*
X0051279Y0067323D01*
X0050680Y0067921D02*
X0050412Y0067921D01*
X0050217Y0066126D02*
X0054581Y0066126D01*
X0054581Y0065527D02*
X0028246Y0065527D01*
X0028246Y0064929D02*
X0054581Y0064929D01*
X0054581Y0064330D02*
X0027980Y0064330D01*
X0028246Y0066126D02*
X0031051Y0066126D01*
X0030856Y0066724D02*
X0028246Y0066724D01*
X0028894Y0067323D02*
X0030856Y0067323D01*
X0035217Y0066126D02*
X0036051Y0066126D01*
X0035856Y0066724D02*
X0035412Y0066724D01*
X0035412Y0067323D02*
X0035856Y0067323D01*
X0035856Y0067921D02*
X0035412Y0067921D01*
X0035529Y0068520D02*
X0035856Y0068520D01*
X0035856Y0069119D02*
X0035640Y0069119D01*
X0035619Y0069717D02*
X0035856Y0069717D01*
X0035856Y0070316D02*
X0035412Y0070316D01*
X0035412Y0070914D02*
X0035856Y0070914D01*
X0035856Y0071513D02*
X0035412Y0071513D01*
X0035412Y0072111D02*
X0035856Y0072111D01*
X0036381Y0072710D02*
X0034887Y0072710D01*
X0034768Y0073308D02*
X0036239Y0073308D01*
X0035640Y0073907D02*
X0034758Y0073907D01*
X0034748Y0074505D02*
X0035531Y0074505D01*
X0035531Y0075104D02*
X0034738Y0075104D01*
X0034729Y0075702D02*
X0035531Y0075702D01*
X0031328Y0075702D02*
X0027729Y0075702D01*
X0030518Y0075104D02*
X0031338Y0075104D01*
X0031348Y0074505D02*
X0031156Y0074505D01*
X0031318Y0076301D02*
X0018548Y0076301D01*
X0018548Y0076899D02*
X0031309Y0076899D01*
X0031299Y0077498D02*
X0018548Y0077498D01*
X0018548Y0078096D02*
X0031276Y0078096D01*
X0031614Y0078695D02*
X0018548Y0078695D01*
X0018548Y0079293D02*
X0032171Y0079293D01*
X0039242Y0073308D02*
X0042144Y0073308D01*
X0041831Y0073907D02*
X0039801Y0073907D01*
X0039909Y0074505D02*
X0041831Y0074505D01*
X0041831Y0075104D02*
X0039909Y0075104D01*
X0039909Y0075702D02*
X0042098Y0075702D01*
X0042696Y0076301D02*
X0040514Y0076301D01*
X0039887Y0072710D02*
X0041381Y0072710D01*
X0040856Y0072111D02*
X0040412Y0072111D01*
X0040412Y0071513D02*
X0040856Y0071513D01*
X0040856Y0070914D02*
X0040412Y0070914D01*
X0040412Y0070316D02*
X0040856Y0070316D01*
X0040856Y0069717D02*
X0040412Y0069717D01*
X0040412Y0069119D02*
X0040856Y0069119D01*
X0040856Y0068520D02*
X0040412Y0068520D01*
X0040412Y0067921D02*
X0040856Y0067921D01*
X0040856Y0067323D02*
X0040412Y0067323D01*
X0040412Y0066724D02*
X0040856Y0066724D01*
X0041051Y0066126D02*
X0040217Y0066126D01*
X0045217Y0066126D02*
X0046051Y0066126D01*
X0045856Y0066724D02*
X0045412Y0066724D01*
X0045412Y0067323D02*
X0045856Y0067323D01*
X0045856Y0067921D02*
X0045412Y0067921D01*
X0045412Y0068520D02*
X0045856Y0068520D01*
X0045856Y0069119D02*
X0045412Y0069119D01*
X0045412Y0069717D02*
X0045856Y0069717D01*
X0045856Y0070316D02*
X0045412Y0070316D01*
X0045412Y0070914D02*
X0045856Y0070914D01*
X0045856Y0071513D02*
X0045412Y0071513D01*
X0045412Y0072111D02*
X0045856Y0072111D01*
X0046381Y0072710D02*
X0045297Y0072710D01*
X0050412Y0071513D02*
X0051294Y0071513D01*
X0050696Y0070914D02*
X0050412Y0070914D01*
X0054581Y0063732D02*
X0018548Y0063732D01*
X0018548Y0064330D02*
X0019744Y0064330D01*
X0019478Y0064929D02*
X0018548Y0064929D01*
X0018548Y0065527D02*
X0019478Y0065527D01*
X0019478Y0066126D02*
X0018548Y0066126D01*
X0018548Y0066724D02*
X0019478Y0066724D01*
X0019478Y0067323D02*
X0018548Y0067323D01*
X0018548Y0067921D02*
X0019478Y0067921D01*
X0019478Y0068520D02*
X0018548Y0068520D01*
X0018548Y0069119D02*
X0019478Y0069119D01*
X0019478Y0069717D02*
X0018548Y0069717D01*
X0018548Y0070316D02*
X0019478Y0070316D01*
X0019478Y0070914D02*
X0018548Y0070914D01*
X0018548Y0071513D02*
X0019478Y0071513D01*
X0019478Y0072111D02*
X0018548Y0072111D01*
X0018548Y0072710D02*
X0019478Y0072710D01*
X0019478Y0073308D02*
X0018548Y0073308D01*
X0018548Y0073907D02*
X0019478Y0073907D01*
X0019478Y0074505D02*
X0018548Y0074505D01*
X0018548Y0075104D02*
X0019478Y0075104D01*
X0019995Y0075702D02*
X0018548Y0075702D01*
X0018548Y0079892D02*
X0044872Y0079892D01*
X0051322Y0086475D02*
X0027164Y0086475D01*
X0027707Y0087074D02*
X0050724Y0087074D01*
X0050125Y0087672D02*
X0027955Y0087672D01*
X0028203Y0088271D02*
X0049527Y0088271D01*
X0048928Y0088869D02*
X0028231Y0088869D01*
X0028231Y0089468D02*
X0048330Y0089468D01*
X0047731Y0090066D02*
X0028126Y0090066D01*
X0027878Y0090665D02*
X0033133Y0090665D01*
X0032058Y0091263D02*
X0027576Y0091263D01*
X0026978Y0091862D02*
X0031460Y0091862D01*
X0031176Y0092460D02*
X0026028Y0092460D01*
X0026478Y0085877D02*
X0051921Y0085877D01*
X0047132Y0090665D02*
X0035222Y0090665D01*
X0036296Y0091263D02*
X0046534Y0091263D01*
X0045935Y0091862D02*
X0036895Y0091862D01*
X0037178Y0092460D02*
X0045337Y0092460D01*
X0044738Y0093059D02*
X0037426Y0093059D01*
X0037455Y0093657D02*
X0044140Y0093657D01*
X0043541Y0094256D02*
X0037455Y0094256D01*
X0037280Y0094855D02*
X0042943Y0094855D01*
X0042344Y0095453D02*
X0037032Y0095453D01*
X0036542Y0096052D02*
X0041746Y0096052D01*
X0042521Y0099643D02*
X0039161Y0099643D01*
X0037636Y0100241D02*
X0042618Y0100241D01*
X0042826Y0100840D02*
X0037636Y0100840D01*
X0037636Y0101438D02*
X0043424Y0101438D01*
X0046190Y0101438D02*
X0057614Y0101438D01*
X0057862Y0100840D02*
X0046788Y0100840D01*
X0046996Y0100241D02*
X0058110Y0100241D01*
X0058358Y0099643D02*
X0046996Y0099643D01*
X0046996Y0099044D02*
X0058920Y0099044D01*
X0059519Y0098446D02*
X0046623Y0098446D01*
X0046025Y0097847D02*
X0060117Y0097847D01*
X0061147Y0097249D02*
X0045357Y0097249D01*
X0045956Y0096650D02*
X0062592Y0096650D01*
X0057366Y0102037D02*
X0037548Y0102037D01*
X0037636Y0102635D02*
X0057287Y0102635D01*
X0057287Y0103234D02*
X0037636Y0103234D01*
X0037636Y0103832D02*
X0057287Y0103832D01*
X0057287Y0104431D02*
X0037636Y0104431D01*
X0037636Y0105029D02*
X0057287Y0105029D01*
X0057507Y0105628D02*
X0037636Y0105628D01*
X0037636Y0106226D02*
X0057755Y0106226D01*
X0058003Y0106825D02*
X0037721Y0106825D01*
X0038014Y0107423D02*
X0058251Y0107423D01*
X0058662Y0108022D02*
X0038036Y0108022D01*
X0038036Y0108620D02*
X0059260Y0108620D01*
X0059859Y0109219D02*
X0038036Y0109219D01*
X0037911Y0109817D02*
X0060523Y0109817D01*
X0061968Y0110416D02*
X0037322Y0110416D01*
X0021961Y0114007D02*
X0018548Y0114007D01*
X0018548Y0114605D02*
X0020718Y0114605D01*
X0020119Y0115204D02*
X0018548Y0115204D01*
X0018574Y0115802D02*
X0019696Y0115802D01*
X0019448Y0116401D02*
X0018621Y0116401D01*
X0018791Y0116999D02*
X0019257Y0116999D01*
X0019257Y0117598D02*
X0018985Y0117598D01*
X0019180Y0118196D02*
X0019257Y0118196D01*
X0021942Y0121189D02*
X0021955Y0121189D01*
X0070757Y0083595D02*
X0079356Y0092195D01*
X0079356Y0077100D01*
X0078260Y0076003D01*
X0076786Y0076003D01*
X0076656Y0076090D01*
X0076223Y0076003D01*
X0075782Y0076003D01*
X0075672Y0075893D01*
X0075519Y0075862D01*
X0075274Y0075495D01*
X0074962Y0075183D01*
X0074962Y0075027D01*
X0072980Y0072051D01*
X0072812Y0072220D01*
X0070757Y0072220D01*
X0070757Y0083595D01*
X0070757Y0083483D02*
X0079356Y0083483D01*
X0079356Y0084081D02*
X0071243Y0084081D01*
X0071841Y0084680D02*
X0079356Y0084680D01*
X0079356Y0085278D02*
X0072440Y0085278D01*
X0073038Y0085877D02*
X0079356Y0085877D01*
X0079356Y0086475D02*
X0073637Y0086475D01*
X0074235Y0087074D02*
X0079356Y0087074D01*
X0079356Y0087672D02*
X0074834Y0087672D01*
X0075432Y0088271D02*
X0079356Y0088271D01*
X0079356Y0088869D02*
X0076031Y0088869D01*
X0076629Y0089468D02*
X0079356Y0089468D01*
X0079356Y0090066D02*
X0077228Y0090066D01*
X0077826Y0090665D02*
X0079356Y0090665D01*
X0079356Y0091263D02*
X0078425Y0091263D01*
X0079023Y0091862D02*
X0079356Y0091862D01*
X0082156Y0091862D02*
X0113862Y0091862D01*
X0114460Y0092460D02*
X0082156Y0092460D01*
X0082483Y0093059D02*
X0115059Y0093059D01*
X0115657Y0093657D02*
X0083081Y0093657D01*
X0083680Y0094256D02*
X0116256Y0094256D01*
X0116854Y0094855D02*
X0084278Y0094855D01*
X0084877Y0095453D02*
X0117453Y0095453D01*
X0118051Y0096052D02*
X0085476Y0096052D01*
X0086074Y0096650D02*
X0118650Y0096650D01*
X0119248Y0097249D02*
X0086673Y0097249D01*
X0087271Y0097847D02*
X0119847Y0097847D01*
X0120445Y0098446D02*
X0087870Y0098446D01*
X0088468Y0099044D02*
X0121044Y0099044D01*
X0121642Y0099643D02*
X0089067Y0099643D01*
X0089665Y0100241D02*
X0122241Y0100241D01*
X0122839Y0100840D02*
X0090264Y0100840D01*
X0090862Y0101438D02*
X0123438Y0101438D01*
X0124036Y0102037D02*
X0091461Y0102037D01*
X0092059Y0102635D02*
X0124635Y0102635D01*
X0125233Y0103234D02*
X0092658Y0103234D01*
X0093256Y0103832D02*
X0125832Y0103832D01*
X0126430Y0104431D02*
X0093855Y0104431D01*
X0094453Y0105029D02*
X0127029Y0105029D01*
X0127627Y0105628D02*
X0095052Y0105628D01*
X0095650Y0106226D02*
X0128226Y0106226D01*
X0128824Y0106825D02*
X0125780Y0106825D01*
X0125268Y0106613D02*
X0126701Y0107206D01*
X0127798Y0108303D01*
X0128392Y0109737D01*
X0128392Y0111288D01*
X0127798Y0112722D01*
X0126701Y0113819D01*
X0125268Y0114413D01*
X0123716Y0114413D01*
X0122283Y0113819D01*
X0121186Y0112722D01*
X0120592Y0111288D01*
X0120592Y0109737D01*
X0121186Y0108303D01*
X0122283Y0107206D01*
X0123716Y0106613D01*
X0125268Y0106613D01*
X0126918Y0107423D02*
X0129423Y0107423D01*
X0130021Y0108022D02*
X0127517Y0108022D01*
X0127930Y0108620D02*
X0130620Y0108620D01*
X0130807Y0109219D02*
X0128178Y0109219D01*
X0128392Y0109817D02*
X0130592Y0109817D01*
X0130592Y0110416D02*
X0128392Y0110416D01*
X0128392Y0111014D02*
X0130592Y0111014D01*
X0130727Y0111613D02*
X0128258Y0111613D01*
X0128010Y0112211D02*
X0130974Y0112211D01*
X0131274Y0112810D02*
X0127710Y0112810D01*
X0127112Y0113408D02*
X0131872Y0113408D01*
X0132737Y0114007D02*
X0126247Y0114007D01*
X0122737Y0114007D02*
X0107673Y0114007D01*
X0108272Y0114605D02*
X0143173Y0114605D01*
X0143485Y0114707D02*
X0142841Y0114498D01*
X0142238Y0114190D01*
X0141691Y0113792D01*
X0141212Y0113314D01*
X0140814Y0112766D01*
X0140507Y0112163D01*
X0140298Y0111520D01*
X0140192Y0110851D01*
X0140192Y0110813D01*
X0144192Y0110813D01*
X0144192Y0114813D01*
X0144154Y0114813D01*
X0143485Y0114707D01*
X0144192Y0114605D02*
X0144792Y0114605D01*
X0144792Y0114813D02*
X0144792Y0110813D01*
X0144192Y0110813D01*
X0144192Y0110213D01*
X0140192Y0110213D01*
X0140192Y0110174D01*
X0140298Y0109506D01*
X0140507Y0108862D01*
X0140814Y0108259D01*
X0141212Y0107711D01*
X0141691Y0107233D01*
X0142238Y0106835D01*
X0142841Y0106528D01*
X0143485Y0106318D01*
X0144154Y0106213D01*
X0144192Y0106213D01*
X0144192Y0110213D01*
X0144792Y0110213D01*
X0144792Y0110813D01*
X0148792Y0110813D01*
X0148792Y0110851D01*
X0148686Y0111520D01*
X0148477Y0112163D01*
X0148170Y0112766D01*
X0147772Y0113314D01*
X0147293Y0113792D01*
X0146746Y0114190D01*
X0146143Y0114498D01*
X0145499Y0114707D01*
X0144831Y0114813D01*
X0144792Y0114813D01*
X0144792Y0114007D02*
X0144192Y0114007D01*
X0144192Y0113408D02*
X0144792Y0113408D01*
X0144792Y0112810D02*
X0144192Y0112810D01*
X0144192Y0112211D02*
X0144792Y0112211D01*
X0144792Y0111613D02*
X0144192Y0111613D01*
X0144192Y0111014D02*
X0144792Y0111014D01*
X0144792Y0110416D02*
X0153370Y0110416D01*
X0153210Y0111014D02*
X0148766Y0111014D01*
X0148656Y0111613D02*
X0153050Y0111613D01*
X0152889Y0112211D02*
X0148453Y0112211D01*
X0148138Y0112810D02*
X0152729Y0112810D01*
X0152482Y0113408D02*
X0147677Y0113408D01*
X0146998Y0114007D02*
X0152136Y0114007D01*
X0151791Y0114605D02*
X0145811Y0114605D01*
X0141986Y0114007D02*
X0136247Y0114007D01*
X0137112Y0113408D02*
X0141307Y0113408D01*
X0140846Y0112810D02*
X0137710Y0112810D01*
X0138010Y0112211D02*
X0140532Y0112211D01*
X0140328Y0111613D02*
X0138258Y0111613D01*
X0138392Y0111014D02*
X0140218Y0111014D01*
X0140249Y0109817D02*
X0138392Y0109817D01*
X0138392Y0110416D02*
X0144192Y0110416D01*
X0144192Y0109817D02*
X0144792Y0109817D01*
X0144792Y0110213D02*
X0144792Y0106213D01*
X0144831Y0106213D01*
X0145499Y0106318D01*
X0146143Y0106528D01*
X0146746Y0106835D01*
X0147293Y0107233D01*
X0147772Y0107711D01*
X0148170Y0108259D01*
X0148477Y0108862D01*
X0148686Y0109506D01*
X0148792Y0110174D01*
X0148792Y0110213D01*
X0144792Y0110213D01*
X0144792Y0109219D02*
X0144192Y0109219D01*
X0144192Y0108620D02*
X0144792Y0108620D01*
X0144792Y0108022D02*
X0144192Y0108022D01*
X0144192Y0107423D02*
X0144792Y0107423D01*
X0144792Y0106825D02*
X0144192Y0106825D01*
X0144192Y0106226D02*
X0144792Y0106226D01*
X0144917Y0106226D02*
X0153743Y0106226D01*
X0153743Y0105628D02*
X0131587Y0105628D01*
X0132186Y0106226D02*
X0144068Y0106226D01*
X0142258Y0106825D02*
X0135780Y0106825D01*
X0136918Y0107423D02*
X0141500Y0107423D01*
X0140987Y0108022D02*
X0137517Y0108022D01*
X0137930Y0108620D02*
X0140630Y0108620D01*
X0140391Y0109219D02*
X0138178Y0109219D01*
X0133204Y0106825D02*
X0132784Y0106825D01*
X0130989Y0105029D02*
X0153743Y0105029D01*
X0153743Y0104431D02*
X0130390Y0104431D01*
X0129792Y0103832D02*
X0153743Y0103832D01*
X0153743Y0103234D02*
X0129193Y0103234D01*
X0128595Y0102635D02*
X0153743Y0102635D01*
X0153743Y0102037D02*
X0127996Y0102037D01*
X0127398Y0101438D02*
X0153743Y0101438D01*
X0153743Y0100840D02*
X0126799Y0100840D01*
X0126201Y0100241D02*
X0153743Y0100241D01*
X0153743Y0099643D02*
X0125602Y0099643D01*
X0125003Y0099044D02*
X0153743Y0099044D01*
X0153743Y0098446D02*
X0124405Y0098446D01*
X0123806Y0097847D02*
X0130384Y0097847D01*
X0129786Y0097249D02*
X0123208Y0097249D01*
X0122609Y0096650D02*
X0129232Y0096650D01*
X0129232Y0096052D02*
X0122011Y0096052D01*
X0121412Y0095453D02*
X0129232Y0095453D01*
X0129259Y0094855D02*
X0120814Y0094855D01*
X0120215Y0094256D02*
X0129552Y0094256D01*
X0129389Y0093657D02*
X0119617Y0093657D01*
X0119018Y0093059D02*
X0129226Y0093059D01*
X0129063Y0092460D02*
X0118420Y0092460D01*
X0117821Y0091862D02*
X0128899Y0091862D01*
X0128736Y0091263D02*
X0117223Y0091263D01*
X0116624Y0090665D02*
X0128573Y0090665D01*
X0128410Y0090066D02*
X0116026Y0090066D01*
X0115427Y0089468D02*
X0128246Y0089468D01*
X0128083Y0088869D02*
X0114829Y0088869D01*
X0114230Y0088271D02*
X0127920Y0088271D01*
X0127757Y0087672D02*
X0113632Y0087672D01*
X0113033Y0087074D02*
X0127594Y0087074D01*
X0127430Y0086475D02*
X0112435Y0086475D01*
X0111836Y0085877D02*
X0127267Y0085877D01*
X0127104Y0085278D02*
X0111238Y0085278D01*
X0111449Y0084680D02*
X0110639Y0084680D01*
X0110342Y0084081D02*
X0110041Y0084081D01*
X0109761Y0083483D02*
X0109442Y0083483D01*
X0109513Y0082884D02*
X0108844Y0082884D01*
X0107876Y0085877D02*
X0082156Y0085877D01*
X0082156Y0086475D02*
X0108475Y0086475D01*
X0109073Y0087074D02*
X0082156Y0087074D01*
X0082156Y0087672D02*
X0109672Y0087672D01*
X0110271Y0088271D02*
X0082156Y0088271D01*
X0082156Y0088869D02*
X0110869Y0088869D01*
X0111468Y0089468D02*
X0082156Y0089468D01*
X0082156Y0090066D02*
X0112066Y0090066D01*
X0112665Y0090665D02*
X0082156Y0090665D01*
X0082156Y0091263D02*
X0113263Y0091263D01*
X0112963Y0084680D02*
X0126941Y0084680D01*
X0126777Y0084081D02*
X0114070Y0084081D01*
X0114650Y0083483D02*
X0126614Y0083483D01*
X0126451Y0082884D02*
X0114898Y0082884D01*
X0115074Y0082286D02*
X0126288Y0082286D01*
X0126124Y0081687D02*
X0115074Y0081687D01*
X0114979Y0081089D02*
X0125961Y0081089D01*
X0125798Y0080490D02*
X0114731Y0080490D01*
X0114266Y0079892D02*
X0125635Y0079892D01*
X0125472Y0079293D02*
X0113436Y0079293D01*
X0111985Y0073714D02*
X0110844Y0073714D01*
X0109790Y0073277D01*
X0108983Y0072471D01*
X0108546Y0071416D01*
X0108546Y0070275D01*
X0108983Y0069221D01*
X0109790Y0068414D01*
X0110844Y0067977D01*
X0111985Y0067977D01*
X0113040Y0068414D01*
X0113847Y0069221D01*
X0114283Y0070275D01*
X0114283Y0071416D01*
X0113847Y0072471D01*
X0113040Y0073277D01*
X0111985Y0073714D01*
X0112966Y0073308D02*
X0123839Y0073308D01*
X0123676Y0072710D02*
X0113608Y0072710D01*
X0113996Y0072111D02*
X0123513Y0072111D01*
X0123350Y0071513D02*
X0114243Y0071513D01*
X0114283Y0070914D02*
X0123186Y0070914D01*
X0123023Y0070316D02*
X0114283Y0070316D01*
X0114052Y0069717D02*
X0122860Y0069717D01*
X0122697Y0069119D02*
X0113744Y0069119D01*
X0113146Y0068520D02*
X0122533Y0068520D01*
X0122370Y0067921D02*
X0104080Y0067921D01*
X0104080Y0067762D02*
X0104080Y0070987D01*
X0103951Y0071465D01*
X0103704Y0071894D01*
X0103354Y0072244D01*
X0102925Y0072492D01*
X0102446Y0072620D01*
X0101899Y0072620D01*
X0101899Y0067762D01*
X0104080Y0067762D01*
X0104080Y0068520D02*
X0109684Y0068520D01*
X0109085Y0069119D02*
X0104080Y0069119D01*
X0104080Y0069717D02*
X0108778Y0069717D01*
X0108546Y0070316D02*
X0104080Y0070316D01*
X0104080Y0070914D02*
X0108546Y0070914D01*
X0108586Y0071513D02*
X0103924Y0071513D01*
X0103486Y0072111D02*
X0108834Y0072111D01*
X0109222Y0072710D02*
X0097611Y0072710D01*
X0097921Y0072111D02*
X0099750Y0072111D01*
X0099883Y0072244D02*
X0099532Y0071894D01*
X0099285Y0071465D01*
X0099157Y0070987D01*
X0099157Y0067762D01*
X0101337Y0067762D01*
X0101337Y0072620D01*
X0100790Y0072620D01*
X0100311Y0072492D01*
X0099883Y0072244D01*
X0099312Y0071513D02*
X0098519Y0071513D01*
X0098680Y0070914D02*
X0099157Y0070914D01*
X0099157Y0070316D02*
X0098680Y0070316D01*
X0098680Y0069717D02*
X0099157Y0069717D01*
X0099157Y0069119D02*
X0098680Y0069119D01*
X0098680Y0068520D02*
X0099157Y0068520D01*
X0099157Y0067921D02*
X0098680Y0067921D01*
X0098680Y0067323D02*
X0101337Y0067323D01*
X0101899Y0067323D02*
X0122207Y0067323D01*
X0122044Y0066724D02*
X0104080Y0066724D01*
X0104080Y0066126D02*
X0121880Y0066126D01*
X0121717Y0065527D02*
X0115607Y0065527D01*
X0115650Y0065484D02*
X0115408Y0065726D01*
X0115112Y0065897D01*
X0114781Y0065986D01*
X0111367Y0065986D01*
X0111367Y0061836D01*
X0115910Y0061836D01*
X0115910Y0064857D01*
X0115822Y0065188D01*
X0115650Y0065484D01*
X0115891Y0064929D02*
X0121554Y0064929D01*
X0121391Y0064330D02*
X0115910Y0064330D01*
X0115910Y0063732D02*
X0121228Y0063732D01*
X0121064Y0063133D02*
X0115910Y0063133D01*
X0115910Y0062535D02*
X0120901Y0062535D01*
X0120738Y0061936D02*
X0115910Y0061936D01*
X0115910Y0061236D02*
X0111367Y0061236D01*
X0111367Y0057087D01*
X0114781Y0057087D01*
X0115112Y0057175D01*
X0115408Y0057346D01*
X0115650Y0057588D01*
X0115822Y0057885D01*
X0115910Y0058215D01*
X0115910Y0061236D01*
X0115910Y0060739D02*
X0120411Y0060739D01*
X0120248Y0060141D02*
X0115910Y0060141D01*
X0115910Y0059542D02*
X0120085Y0059542D01*
X0119922Y0058944D02*
X0115910Y0058944D01*
X0115910Y0058345D02*
X0119758Y0058345D01*
X0119595Y0057747D02*
X0115742Y0057747D01*
X0115012Y0057148D02*
X0119432Y0057148D01*
X0119269Y0056550D02*
X0104476Y0056550D01*
X0104476Y0055951D02*
X0119106Y0055951D01*
X0118942Y0055353D02*
X0104476Y0055353D01*
X0104113Y0054754D02*
X0118779Y0054754D01*
X0118189Y0054156D02*
X0115389Y0054156D01*
X0115510Y0053557D02*
X0116709Y0053557D01*
X0116267Y0049966D02*
X0124664Y0049966D01*
X0124912Y0049368D02*
X0115510Y0049368D01*
X0115510Y0048769D02*
X0125160Y0048769D01*
X0125542Y0048171D02*
X0115510Y0048171D01*
X0115510Y0047572D02*
X0126140Y0047572D01*
X0126739Y0046974D02*
X0115494Y0046974D01*
X0120789Y0050565D02*
X0124416Y0050565D01*
X0124216Y0051163D02*
X0121388Y0051163D01*
X0121799Y0051762D02*
X0124216Y0051762D01*
X0124216Y0052360D02*
X0121799Y0052360D01*
X0121799Y0052959D02*
X0124216Y0052959D01*
X0124216Y0053557D02*
X0121630Y0053557D01*
X0121518Y0054156D02*
X0124316Y0054156D01*
X0124564Y0054754D02*
X0121681Y0054754D01*
X0121845Y0055353D02*
X0124812Y0055353D01*
X0125059Y0055951D02*
X0122008Y0055951D01*
X0122171Y0056550D02*
X0125307Y0056550D01*
X0125898Y0057148D02*
X0122334Y0057148D01*
X0122497Y0057747D02*
X0126497Y0057747D01*
X0127095Y0058345D02*
X0122661Y0058345D01*
X0122824Y0058944D02*
X0128195Y0058944D01*
X0129640Y0059542D02*
X0122987Y0059542D01*
X0120575Y0061338D02*
X0111367Y0061338D01*
X0111367Y0061236D02*
X0111367Y0061836D01*
X0110767Y0061836D01*
X0110767Y0061236D01*
X0111367Y0061236D01*
X0111367Y0060739D02*
X0110767Y0060739D01*
X0110767Y0061236D02*
X0110767Y0057087D01*
X0107352Y0057087D01*
X0107022Y0057175D01*
X0106725Y0057346D01*
X0106483Y0057588D01*
X0106312Y0057885D01*
X0106224Y0058215D01*
X0106224Y0061236D01*
X0110767Y0061236D01*
X0110767Y0061338D02*
X0101220Y0061338D01*
X0100924Y0061936D02*
X0106224Y0061936D01*
X0106224Y0061836D02*
X0106224Y0064857D01*
X0106312Y0065188D01*
X0106483Y0065484D01*
X0106725Y0065726D01*
X0107022Y0065897D01*
X0107352Y0065986D01*
X0110767Y0065986D01*
X0110767Y0061836D01*
X0106224Y0061836D01*
X0106224Y0062535D02*
X0103036Y0062535D01*
X0103741Y0063133D02*
X0106224Y0063133D01*
X0106224Y0063732D02*
X0104014Y0063732D01*
X0104080Y0064330D02*
X0106224Y0064330D01*
X0106243Y0064929D02*
X0104080Y0064929D01*
X0104080Y0065527D02*
X0106527Y0065527D01*
X0101899Y0065527D02*
X0101337Y0065527D01*
X0101337Y0064929D02*
X0101899Y0064929D01*
X0101899Y0064330D02*
X0101337Y0064330D01*
X0101337Y0063732D02*
X0101899Y0063732D01*
X0101899Y0063133D02*
X0101337Y0063133D01*
X0101337Y0062535D02*
X0101899Y0062535D01*
X0101516Y0060739D02*
X0106224Y0060739D01*
X0106224Y0060141D02*
X0101812Y0060141D01*
X0102109Y0059542D02*
X0106224Y0059542D01*
X0106224Y0058944D02*
X0102405Y0058944D01*
X0102701Y0058345D02*
X0106224Y0058345D01*
X0106392Y0057747D02*
X0103661Y0057747D01*
X0104259Y0057148D02*
X0107122Y0057148D01*
X0106744Y0054156D02*
X0103514Y0054156D01*
X0103484Y0052360D02*
X0106624Y0052360D01*
X0106624Y0051762D02*
X0103680Y0051762D01*
X0103680Y0051163D02*
X0106624Y0051163D01*
X0106624Y0052959D02*
X0098127Y0052959D01*
X0098138Y0053504D02*
X0098114Y0052390D01*
X0098680Y0051825D01*
X0098680Y0044082D01*
X0097812Y0043215D01*
X0095424Y0043215D01*
X0094557Y0044082D01*
X0094557Y0051825D01*
X0095318Y0052586D01*
X0095339Y0053578D01*
X0094587Y0054330D01*
X0094587Y0056144D01*
X0094959Y0056516D01*
X0094196Y0056516D01*
X0093067Y0056983D01*
X0092203Y0057847D01*
X0091735Y0058976D01*
X0091735Y0060198D01*
X0092203Y0061327D01*
X0093067Y0062191D01*
X0094196Y0062659D01*
X0095418Y0062659D01*
X0096547Y0062191D01*
X0097411Y0061327D01*
X0097879Y0060198D01*
X0097879Y0058976D01*
X0097411Y0057847D01*
X0096990Y0057426D01*
X0097682Y0057426D01*
X0098965Y0056144D01*
X0098965Y0054330D01*
X0098138Y0053504D01*
X0098191Y0053557D02*
X0106624Y0053557D01*
X0104756Y0050565D02*
X0103680Y0050565D01*
X0101060Y0054156D02*
X0098790Y0054156D01*
X0098965Y0054754D02*
X0100462Y0054754D01*
X0100098Y0055353D02*
X0098965Y0055353D01*
X0098965Y0055951D02*
X0100098Y0055951D01*
X0100098Y0056550D02*
X0098558Y0056550D01*
X0097960Y0057148D02*
X0100169Y0057148D01*
X0099873Y0057747D02*
X0097310Y0057747D01*
X0097617Y0058345D02*
X0099577Y0058345D01*
X0099281Y0058944D02*
X0097865Y0058944D01*
X0097879Y0059542D02*
X0098985Y0059542D01*
X0098688Y0060141D02*
X0097879Y0060141D01*
X0097655Y0060739D02*
X0098392Y0060739D01*
X0098096Y0061338D02*
X0097401Y0061338D01*
X0097800Y0061936D02*
X0096802Y0061936D01*
X0097504Y0062535D02*
X0095718Y0062535D01*
X0095033Y0063133D02*
X0093203Y0063133D01*
X0093680Y0063732D02*
X0094557Y0063732D01*
X0094557Y0064330D02*
X0093680Y0064330D01*
X0093680Y0064929D02*
X0094557Y0064929D01*
X0094557Y0065527D02*
X0093680Y0065527D01*
X0093680Y0066126D02*
X0094557Y0066126D01*
X0094557Y0066724D02*
X0093680Y0066724D01*
X0093680Y0067323D02*
X0094557Y0067323D01*
X0094557Y0067921D02*
X0094038Y0067921D01*
X0089717Y0071513D02*
X0088519Y0071513D01*
X0088680Y0070914D02*
X0089557Y0070914D01*
X0089557Y0070316D02*
X0088680Y0070316D01*
X0088680Y0069717D02*
X0089557Y0069717D01*
X0089557Y0069119D02*
X0088680Y0069119D01*
X0088680Y0068520D02*
X0089557Y0068520D01*
X0089557Y0067921D02*
X0088680Y0067921D01*
X0088680Y0067323D02*
X0089557Y0067323D01*
X0089557Y0066724D02*
X0088680Y0066724D01*
X0088680Y0066126D02*
X0089557Y0066126D01*
X0089557Y0065527D02*
X0088680Y0065527D01*
X0088680Y0064929D02*
X0089557Y0064929D01*
X0089557Y0064330D02*
X0088680Y0064330D01*
X0088680Y0063732D02*
X0089557Y0063732D01*
X0090033Y0063133D02*
X0088203Y0063133D01*
X0087966Y0062535D02*
X0093896Y0062535D01*
X0092812Y0061936D02*
X0087960Y0061936D01*
X0088259Y0061338D02*
X0092214Y0061338D01*
X0091960Y0060739D02*
X0088728Y0060739D01*
X0088728Y0060141D02*
X0091735Y0060141D01*
X0091735Y0059542D02*
X0088728Y0059542D01*
X0088617Y0058944D02*
X0091749Y0058944D01*
X0091997Y0058345D02*
X0088019Y0058345D01*
X0090634Y0056550D02*
X0094114Y0056550D01*
X0094587Y0055951D02*
X0091233Y0055951D01*
X0091368Y0055353D02*
X0094587Y0055353D01*
X0094587Y0054754D02*
X0091504Y0054754D01*
X0091640Y0054156D02*
X0094761Y0054156D01*
X0095339Y0053557D02*
X0091777Y0053557D01*
X0091913Y0052959D02*
X0095326Y0052959D01*
X0095092Y0052360D02*
X0093144Y0052360D01*
X0093680Y0051762D02*
X0094557Y0051762D01*
X0094557Y0051163D02*
X0093680Y0051163D01*
X0093680Y0050565D02*
X0094557Y0050565D01*
X0094557Y0049966D02*
X0093680Y0049966D01*
X0093680Y0049368D02*
X0094557Y0049368D01*
X0094557Y0048769D02*
X0093680Y0048769D01*
X0093680Y0048171D02*
X0094557Y0048171D01*
X0094557Y0047572D02*
X0093680Y0047572D01*
X0093680Y0046974D02*
X0094557Y0046974D01*
X0094557Y0046375D02*
X0093680Y0046375D01*
X0093680Y0045777D02*
X0094557Y0045777D01*
X0094557Y0045178D02*
X0093680Y0045178D01*
X0093680Y0044580D02*
X0094557Y0044580D01*
X0094658Y0043981D02*
X0093578Y0043981D01*
X0093641Y0043383D02*
X0095256Y0043383D01*
X0097980Y0043383D02*
X0099916Y0043383D01*
X0099557Y0043981D02*
X0098578Y0043981D01*
X0098680Y0044580D02*
X0099557Y0044580D01*
X0099557Y0045178D02*
X0098680Y0045178D01*
X0098680Y0045777D02*
X0099557Y0045777D01*
X0099557Y0046375D02*
X0098680Y0046375D01*
X0098680Y0046974D02*
X0099557Y0046974D01*
X0099557Y0047572D02*
X0098680Y0047572D01*
X0098680Y0048171D02*
X0099557Y0048171D01*
X0099557Y0048769D02*
X0098680Y0048769D01*
X0098680Y0049368D02*
X0099557Y0049368D01*
X0099557Y0049966D02*
X0098680Y0049966D01*
X0098680Y0050565D02*
X0099557Y0050565D01*
X0099557Y0051163D02*
X0098680Y0051163D01*
X0098680Y0051762D02*
X0099557Y0051762D01*
X0099752Y0052360D02*
X0098144Y0052360D01*
X0092902Y0057148D02*
X0079391Y0057148D01*
X0079990Y0057747D02*
X0092304Y0057747D01*
X0089178Y0052360D02*
X0088144Y0052360D01*
X0088680Y0051762D02*
X0089314Y0051762D01*
X0089451Y0051163D02*
X0088680Y0051163D01*
X0088680Y0050565D02*
X0089557Y0050565D01*
X0089557Y0049966D02*
X0088680Y0049966D01*
X0088680Y0049368D02*
X0089557Y0049368D01*
X0089557Y0048769D02*
X0088680Y0048769D01*
X0088680Y0048171D02*
X0089557Y0048171D01*
X0089557Y0047572D02*
X0088979Y0047572D01*
X0085060Y0058345D02*
X0080295Y0058345D01*
X0080543Y0058944D02*
X0084461Y0058944D01*
X0084350Y0059542D02*
X0080556Y0059542D01*
X0080556Y0060141D02*
X0084350Y0060141D01*
X0084350Y0060739D02*
X0080331Y0060739D01*
X0080075Y0061338D02*
X0084820Y0061338D01*
X0085033Y0063133D02*
X0083203Y0063133D01*
X0083680Y0063732D02*
X0084557Y0063732D01*
X0084557Y0064330D02*
X0083680Y0064330D01*
X0083680Y0064929D02*
X0084557Y0064929D01*
X0084557Y0065527D02*
X0083680Y0065527D01*
X0083680Y0066126D02*
X0084557Y0066126D01*
X0084557Y0066724D02*
X0083680Y0066724D01*
X0083680Y0067323D02*
X0084557Y0067323D01*
X0084557Y0067921D02*
X0084038Y0067921D01*
X0082957Y0072111D02*
X0082921Y0072111D01*
X0083035Y0072710D02*
X0076783Y0072710D01*
X0074216Y0073907D02*
X0070757Y0073907D01*
X0070757Y0074505D02*
X0074615Y0074505D01*
X0074962Y0075104D02*
X0070757Y0075104D01*
X0070757Y0075702D02*
X0075412Y0075702D01*
X0073818Y0073308D02*
X0070757Y0073308D01*
X0070757Y0072710D02*
X0073419Y0072710D01*
X0073020Y0072111D02*
X0072921Y0072111D01*
X0070757Y0076301D02*
X0078557Y0076301D01*
X0079156Y0076899D02*
X0070757Y0076899D01*
X0070757Y0077498D02*
X0079356Y0077498D01*
X0079356Y0078096D02*
X0070757Y0078096D01*
X0070757Y0078695D02*
X0079356Y0078695D01*
X0079356Y0079293D02*
X0070757Y0079293D01*
X0070757Y0079892D02*
X0079356Y0079892D01*
X0079356Y0080490D02*
X0070757Y0080490D01*
X0070757Y0081089D02*
X0079356Y0081089D01*
X0079356Y0081687D02*
X0070757Y0081687D01*
X0070757Y0082286D02*
X0079356Y0082286D01*
X0079356Y0082884D02*
X0070757Y0082884D01*
X0082156Y0084680D02*
X0095005Y0084680D01*
X0095604Y0085278D02*
X0082156Y0085278D01*
X0090586Y0076301D02*
X0097242Y0076301D01*
X0097841Y0076899D02*
X0091185Y0076899D01*
X0091783Y0077498D02*
X0098439Y0077498D01*
X0099038Y0078096D02*
X0092382Y0078096D01*
X0092980Y0078695D02*
X0099636Y0078695D01*
X0100235Y0079293D02*
X0093579Y0079293D01*
X0096644Y0075702D02*
X0089987Y0075702D01*
X0089389Y0075104D02*
X0096045Y0075104D01*
X0095447Y0074505D02*
X0088790Y0074505D01*
X0088192Y0073907D02*
X0094848Y0073907D01*
X0094250Y0073308D02*
X0087593Y0073308D01*
X0086995Y0072710D02*
X0093651Y0072710D01*
X0093053Y0072111D02*
X0092921Y0072111D01*
X0090315Y0072111D02*
X0087921Y0072111D01*
X0098210Y0073308D02*
X0109864Y0073308D01*
X0101899Y0072111D02*
X0101337Y0072111D01*
X0101337Y0071513D02*
X0101899Y0071513D01*
X0101899Y0070914D02*
X0101337Y0070914D01*
X0101337Y0070316D02*
X0101899Y0070316D01*
X0101899Y0069717D02*
X0101337Y0069717D01*
X0101337Y0069119D02*
X0101899Y0069119D01*
X0101899Y0068520D02*
X0101337Y0068520D01*
X0101337Y0067921D02*
X0101899Y0067921D01*
X0101899Y0066724D02*
X0101337Y0066724D01*
X0101337Y0066126D02*
X0101899Y0066126D01*
X0099157Y0066126D02*
X0098851Y0066126D01*
X0098680Y0066724D02*
X0099157Y0066724D01*
X0099147Y0065527D02*
X0099157Y0065527D01*
X0098808Y0073907D02*
X0124002Y0073907D01*
X0124166Y0074505D02*
X0099407Y0074505D01*
X0100005Y0075104D02*
X0124329Y0075104D01*
X0124492Y0075702D02*
X0100604Y0075702D01*
X0110767Y0065527D02*
X0111367Y0065527D01*
X0111367Y0064929D02*
X0110767Y0064929D01*
X0110767Y0064330D02*
X0111367Y0064330D01*
X0111367Y0063732D02*
X0110767Y0063732D01*
X0110767Y0063133D02*
X0111367Y0063133D01*
X0111367Y0062535D02*
X0110767Y0062535D01*
X0110767Y0061936D02*
X0111367Y0061936D01*
X0111367Y0060141D02*
X0110767Y0060141D01*
X0110767Y0059542D02*
X0111367Y0059542D01*
X0111367Y0058944D02*
X0110767Y0058944D01*
X0110767Y0058345D02*
X0111367Y0058345D01*
X0111367Y0057747D02*
X0110767Y0057747D01*
X0110767Y0057148D02*
X0111367Y0057148D01*
X0106640Y0046974D02*
X0104503Y0046974D01*
X0103680Y0046375D02*
X0127337Y0046375D01*
X0128778Y0045777D02*
X0103680Y0045777D01*
X0118938Y0035003D02*
X0153743Y0035003D01*
X0153743Y0034405D02*
X0119537Y0034405D01*
X0120135Y0033806D02*
X0153743Y0033806D01*
X0153743Y0033208D02*
X0120734Y0033208D01*
X0121332Y0032609D02*
X0153731Y0032609D01*
X0153692Y0032011D02*
X0121926Y0032011D01*
X0121926Y0031412D02*
X0153653Y0031412D01*
X0153594Y0030814D02*
X0121926Y0030814D01*
X0121926Y0030215D02*
X0153434Y0030215D01*
X0153273Y0029617D02*
X0121926Y0029617D01*
X0121926Y0029018D02*
X0153113Y0029018D01*
X0152952Y0028420D02*
X0121926Y0028420D01*
X0121926Y0027821D02*
X0152792Y0027821D01*
X0152618Y0027223D02*
X0121399Y0027223D01*
X0120800Y0026624D02*
X0152272Y0026624D01*
X0151927Y0026026D02*
X0120202Y0026026D01*
X0119603Y0025427D02*
X0151581Y0025427D01*
X0151236Y0024829D02*
X0119005Y0024829D01*
X0142569Y0018844D02*
X0022818Y0018844D01*
X0021618Y0019442D02*
X0144803Y0019442D01*
X0146093Y0063732D02*
X0124130Y0063732D01*
X0124293Y0064330D02*
X0145566Y0064330D01*
X0145318Y0064929D02*
X0124456Y0064929D01*
X0124619Y0065527D02*
X0145175Y0065527D01*
X0145175Y0066126D02*
X0124783Y0066126D01*
X0124946Y0066724D02*
X0145298Y0066724D01*
X0145546Y0067323D02*
X0125109Y0067323D01*
X0125272Y0067921D02*
X0146044Y0067921D01*
X0153743Y0081089D02*
X0128863Y0081089D01*
X0129027Y0081687D02*
X0153743Y0081687D01*
X0153743Y0082286D02*
X0129190Y0082286D01*
X0129353Y0082884D02*
X0153743Y0082884D01*
X0153743Y0083483D02*
X0129516Y0083483D01*
X0129680Y0084081D02*
X0153743Y0084081D01*
X0153743Y0084680D02*
X0129843Y0084680D01*
X0130006Y0085278D02*
X0153743Y0085278D01*
X0153743Y0085877D02*
X0130169Y0085877D01*
X0130333Y0086475D02*
X0153743Y0086475D01*
X0153743Y0087074D02*
X0130496Y0087074D01*
X0130659Y0087672D02*
X0153743Y0087672D01*
X0153743Y0088271D02*
X0130822Y0088271D01*
X0130985Y0088869D02*
X0153743Y0088869D01*
X0153743Y0089468D02*
X0131149Y0089468D01*
X0131312Y0090066D02*
X0153743Y0090066D01*
X0153743Y0090665D02*
X0131475Y0090665D01*
X0131638Y0091263D02*
X0153743Y0091263D01*
X0153743Y0091862D02*
X0131802Y0091862D01*
X0131965Y0092460D02*
X0153743Y0092460D01*
X0153743Y0093059D02*
X0132128Y0093059D01*
X0132386Y0093657D02*
X0153743Y0093657D01*
X0153743Y0094256D02*
X0132985Y0094256D01*
X0133583Y0094855D02*
X0153743Y0094855D01*
X0153743Y0095453D02*
X0133610Y0095453D01*
X0133610Y0096052D02*
X0153743Y0096052D01*
X0153743Y0096650D02*
X0133610Y0096650D01*
X0133057Y0097249D02*
X0153743Y0097249D01*
X0153743Y0097847D02*
X0132458Y0097847D01*
X0123204Y0106825D02*
X0096249Y0106825D01*
X0096847Y0107423D02*
X0122066Y0107423D01*
X0121468Y0108022D02*
X0097446Y0108022D01*
X0098044Y0108620D02*
X0121055Y0108620D01*
X0120807Y0109219D02*
X0098643Y0109219D01*
X0099241Y0109817D02*
X0120592Y0109817D01*
X0120592Y0110416D02*
X0099840Y0110416D01*
X0100438Y0111014D02*
X0120592Y0111014D01*
X0120727Y0111613D02*
X0101037Y0111613D01*
X0101635Y0112211D02*
X0120974Y0112211D01*
X0121274Y0112810D02*
X0102234Y0112810D01*
X0102832Y0113408D02*
X0103260Y0113408D01*
X0100070Y0114605D02*
X0098272Y0114605D01*
X0098744Y0115204D02*
X0100668Y0115204D01*
X0100858Y0115802D02*
X0098992Y0115802D01*
X0099240Y0116401D02*
X0100610Y0116401D01*
X0100525Y0116999D02*
X0099325Y0116999D01*
X0099325Y0117598D02*
X0100525Y0117598D01*
X0100525Y0118196D02*
X0099325Y0118196D01*
X0099144Y0118795D02*
X0100707Y0118795D01*
X0100955Y0119393D02*
X0098896Y0119393D01*
X0098637Y0119992D02*
X0101214Y0119992D01*
X0101812Y0120590D02*
X0098038Y0120590D01*
X0097440Y0121189D02*
X0102411Y0121189D01*
X0103824Y0121788D02*
X0096026Y0121788D01*
X0093824Y0121788D02*
X0086026Y0121788D01*
X0087440Y0121189D02*
X0092411Y0121189D01*
X0091812Y0120590D02*
X0088038Y0120590D01*
X0088637Y0119992D02*
X0091214Y0119992D01*
X0090955Y0119393D02*
X0088896Y0119393D01*
X0089144Y0118795D02*
X0090707Y0118795D01*
X0090525Y0118196D02*
X0089325Y0118196D01*
X0089325Y0117598D02*
X0090525Y0117598D01*
X0090525Y0116999D02*
X0089325Y0116999D01*
X0089240Y0116401D02*
X0090610Y0116401D01*
X0090858Y0115802D02*
X0088992Y0115802D01*
X0088744Y0115204D02*
X0091106Y0115204D01*
X0091578Y0114605D02*
X0088272Y0114605D01*
X0087673Y0114007D02*
X0092177Y0114007D01*
X0096325Y0112810D02*
X0098274Y0112810D01*
X0098873Y0113408D02*
X0096590Y0113408D01*
X0096325Y0112211D02*
X0097676Y0112211D01*
X0097077Y0111613D02*
X0096325Y0111613D01*
X0096325Y0111014D02*
X0096479Y0111014D01*
X0097673Y0114007D02*
X0099471Y0114007D01*
X0106590Y0113408D02*
X0121872Y0113408D01*
X0109240Y0116401D02*
X0150751Y0116401D01*
X0151100Y0115802D02*
X0108992Y0115802D01*
X0108744Y0115204D02*
X0151445Y0115204D01*
X0150153Y0116999D02*
X0109325Y0116999D01*
X0109325Y0117598D02*
X0149554Y0117598D01*
X0148956Y0118196D02*
X0109325Y0118196D01*
X0109144Y0118795D02*
X0148357Y0118795D01*
X0147516Y0119393D02*
X0108896Y0119393D01*
X0108637Y0119992D02*
X0146479Y0119992D01*
X0145443Y0120590D02*
X0108038Y0120590D01*
X0107440Y0121189D02*
X0143923Y0121189D01*
X0141689Y0121788D02*
X0106026Y0121788D01*
X0146726Y0106825D02*
X0153743Y0106825D01*
X0153743Y0107423D02*
X0147484Y0107423D01*
X0147998Y0108022D02*
X0153716Y0108022D01*
X0153676Y0108620D02*
X0148354Y0108620D01*
X0148593Y0109219D02*
X0153637Y0109219D01*
X0153531Y0109817D02*
X0148736Y0109817D01*
X0061524Y0066724D02*
X0060924Y0066724D01*
X0060924Y0066126D02*
X0061524Y0066126D01*
X0061524Y0065527D02*
X0060924Y0065527D01*
X0060924Y0064929D02*
X0061524Y0064929D01*
X0061524Y0064330D02*
X0060924Y0064330D01*
X0060924Y0063732D02*
X0061524Y0063732D01*
X0061524Y0063133D02*
X0060924Y0063133D01*
X0056981Y0060141D02*
X0018548Y0060141D01*
X0018548Y0060739D02*
X0056850Y0060739D01*
X0056251Y0061338D02*
X0018548Y0061338D01*
X0018548Y0061936D02*
X0055653Y0061936D01*
X0055054Y0062535D02*
X0018548Y0062535D01*
X0018548Y0063133D02*
X0054581Y0063133D01*
X0056781Y0059542D02*
X0018548Y0059542D01*
X0018548Y0058944D02*
X0056781Y0058944D01*
X0056781Y0058345D02*
X0018548Y0058345D01*
X0018548Y0057747D02*
X0056781Y0057747D01*
X0056781Y0057148D02*
X0018548Y0057148D01*
X0018548Y0056550D02*
X0056781Y0056550D01*
X0056781Y0055951D02*
X0018548Y0055951D01*
X0018548Y0055353D02*
X0056600Y0055353D01*
X0055712Y0054754D02*
X0027874Y0054754D01*
X0028246Y0054156D02*
X0054824Y0054156D01*
X0053935Y0053557D02*
X0028246Y0053557D01*
X0028246Y0052959D02*
X0053047Y0052959D01*
X0052158Y0052360D02*
X0028246Y0052360D01*
X0028246Y0051762D02*
X0051270Y0051762D01*
X0050382Y0051163D02*
X0040345Y0051163D01*
X0040749Y0050565D02*
X0040890Y0050565D01*
X0040856Y0049966D02*
X0040812Y0049966D01*
X0040812Y0049368D02*
X0040856Y0049368D01*
X0040856Y0048769D02*
X0040812Y0048769D01*
X0038434Y0048769D02*
X0037834Y0048769D01*
X0037834Y0048171D02*
X0038434Y0048171D01*
X0038434Y0049368D02*
X0037834Y0049368D01*
X0037834Y0049966D02*
X0038434Y0049966D01*
X0038434Y0050565D02*
X0037834Y0050565D01*
X0037834Y0051163D02*
X0038434Y0051163D01*
X0035922Y0051163D02*
X0028246Y0051163D01*
X0028246Y0050565D02*
X0030890Y0050565D01*
X0030856Y0049966D02*
X0030376Y0049966D01*
X0029371Y0046756D02*
X0031249Y0045219D01*
X0033458Y0043981D02*
X0035990Y0043981D01*
X0035533Y0044580D02*
X0035324Y0044580D01*
X0035412Y0045178D02*
X0035456Y0045178D01*
X0035456Y0045777D02*
X0035412Y0045777D01*
X0035412Y0046375D02*
X0035456Y0046375D01*
X0037834Y0046375D02*
X0038434Y0046375D01*
X0038434Y0045777D02*
X0037834Y0045777D01*
X0037834Y0045178D02*
X0038434Y0045178D01*
X0038434Y0044580D02*
X0037834Y0044580D01*
X0037834Y0043981D02*
X0038434Y0043981D01*
X0040277Y0043981D02*
X0040676Y0043981D01*
X0040682Y0043383D02*
X0032984Y0043383D01*
X0031955Y0042784D02*
X0040689Y0042784D01*
X0036766Y0042186D02*
X0030050Y0042186D01*
X0029246Y0041587D02*
X0036489Y0041587D01*
X0036489Y0040988D02*
X0028442Y0040988D01*
X0027856Y0040390D02*
X0036489Y0040390D01*
X0036489Y0039791D02*
X0027856Y0039791D01*
X0027856Y0039193D02*
X0036489Y0039193D01*
X0036489Y0038594D02*
X0027856Y0038594D01*
X0027856Y0037996D02*
X0036489Y0037996D01*
X0036489Y0037397D02*
X0027856Y0037397D01*
X0027856Y0036799D02*
X0036489Y0036799D01*
X0036489Y0036200D02*
X0027856Y0036200D01*
X0027856Y0035602D02*
X0036489Y0035602D01*
X0036489Y0035003D02*
X0027856Y0035003D01*
X0027856Y0034405D02*
X0036489Y0034405D01*
X0036489Y0033806D02*
X0027856Y0033806D01*
X0027856Y0033208D02*
X0036489Y0033208D01*
X0036489Y0032609D02*
X0027856Y0032609D01*
X0027856Y0032011D02*
X0036489Y0032011D01*
X0036489Y0031412D02*
X0027856Y0031412D01*
X0027856Y0030814D02*
X0036489Y0030814D01*
X0036489Y0030215D02*
X0027856Y0030215D01*
X0027856Y0029617D02*
X0036489Y0029617D01*
X0036489Y0029018D02*
X0027856Y0029018D01*
X0027856Y0028420D02*
X0036489Y0028420D01*
X0036489Y0027821D02*
X0027856Y0027821D01*
X0027856Y0027223D02*
X0036489Y0027223D01*
X0036489Y0026624D02*
X0027856Y0026624D01*
X0027856Y0026026D02*
X0036489Y0026026D01*
X0036489Y0025427D02*
X0027856Y0025427D01*
X0027856Y0024829D02*
X0036489Y0024829D01*
X0036888Y0024230D02*
X0027458Y0024230D01*
X0018909Y0023033D02*
X0055298Y0023033D01*
X0054346Y0023632D02*
X0018714Y0023632D01*
X0018548Y0042784D02*
X0018694Y0042784D01*
X0018795Y0043383D02*
X0018548Y0043383D01*
X0018548Y0043981D02*
X0018982Y0043981D01*
X0018548Y0044580D02*
X0019420Y0044580D01*
X0019478Y0045178D02*
X0018548Y0045178D01*
X0018548Y0045777D02*
X0019478Y0045777D01*
X0019478Y0046375D02*
X0018548Y0046375D01*
X0018548Y0046974D02*
X0019478Y0046974D01*
X0019478Y0047572D02*
X0018548Y0047572D01*
X0018548Y0048171D02*
X0019478Y0048171D01*
X0019478Y0048769D02*
X0018548Y0048769D01*
X0018548Y0049368D02*
X0019478Y0049368D01*
X0019478Y0049966D02*
X0018548Y0049966D01*
X0018548Y0050565D02*
X0019478Y0050565D01*
X0019478Y0051163D02*
X0018548Y0051163D01*
X0018548Y0051762D02*
X0019478Y0051762D01*
X0019478Y0052360D02*
X0018548Y0052360D01*
X0018548Y0052959D02*
X0019478Y0052959D01*
X0019478Y0053557D02*
X0018548Y0053557D01*
X0018548Y0054156D02*
X0019478Y0054156D01*
X0019851Y0054754D02*
X0018548Y0054754D01*
X0035378Y0050565D02*
X0035519Y0050565D01*
X0035456Y0049966D02*
X0035412Y0049966D01*
X0035412Y0049368D02*
X0035456Y0049368D01*
X0035456Y0048769D02*
X0035412Y0048769D01*
X0037834Y0046974D02*
X0038434Y0046974D01*
X0045412Y0048769D02*
X0045856Y0048769D01*
X0045856Y0048171D02*
X0045609Y0048171D01*
X0045634Y0047572D02*
X0045856Y0047572D01*
X0045856Y0046974D02*
X0045641Y0046974D01*
X0045648Y0046375D02*
X0045856Y0046375D01*
X0045856Y0045777D02*
X0045655Y0045777D01*
X0045856Y0049368D02*
X0045412Y0049368D01*
X0045412Y0049966D02*
X0045856Y0049966D01*
X0045890Y0050565D02*
X0045378Y0050565D01*
X0059822Y0030814D02*
X0060422Y0030814D01*
X0060422Y0030215D02*
X0059822Y0030215D01*
X0059822Y0029617D02*
X0060422Y0029617D01*
X0060422Y0029018D02*
X0059822Y0029018D01*
X0059822Y0028420D02*
X0060422Y0028420D01*
X0060422Y0026624D02*
X0059822Y0026624D01*
X0059822Y0026026D02*
X0060422Y0026026D01*
X0060422Y0025427D02*
X0059822Y0025427D01*
X0059822Y0024829D02*
X0060422Y0024829D01*
X0060422Y0024230D02*
X0059822Y0024230D01*
X0059822Y0023632D02*
X0060422Y0023632D01*
X0060422Y0023033D02*
X0059822Y0023033D01*
D29*
X0071579Y0040276D03*
X0060555Y0048544D03*
X0053612Y0043440D03*
X0070822Y0059552D03*
X0086539Y0059961D03*
X0096776Y0055237D03*
X0102287Y0056024D03*
X0119610Y0052481D03*
X0143794Y0056211D03*
X0145988Y0049331D03*
X0152337Y0055799D03*
X0122366Y0080828D03*
X0131421Y0095788D03*
X0143232Y0087914D03*
X0152404Y0087769D03*
X0103862Y0099725D03*
X0088114Y0087914D03*
X0076303Y0085158D03*
X0052287Y0069410D03*
X0044020Y0074528D03*
X0037720Y0074922D03*
X0029160Y0072948D03*
X0050929Y0078451D03*
X0044807Y0099725D03*
X0044807Y0111536D03*
X0040870Y0111536D03*
X0040870Y0115473D03*
X0044807Y0115473D03*
X0101894Y0081615D03*
X0032225Y0030966D03*
X0030240Y0022560D03*
D30*
X0061816Y0081928D03*
D31*
X0056281Y0083920D02*
X0042445Y0097757D01*
X0033980Y0098229D01*
X0056281Y0083920D02*
X0056281Y0063712D01*
X0061224Y0058769D01*
X0061224Y0056418D01*
X0048134Y0047599D01*
X0033134Y0069253D02*
X0027892Y0069613D01*
X0023862Y0069891D01*
X0033134Y0069253D02*
X0032996Y0077678D01*
X0050929Y0078451D01*
X0101618Y0047954D02*
X0111067Y0050513D01*
X0119610Y0052481D01*
D32*
X0131421Y0095788D01*
X0134492Y0110513D02*
X0107983Y0084004D01*
X0096309Y0084004D01*
X0084357Y0072051D01*
X0084357Y0070220D01*
X0081618Y0067481D01*
X0076618Y0067481D02*
X0073880Y0064743D01*
X0073880Y0063527D01*
X0072895Y0062543D01*
X0070341Y0062543D01*
X0069357Y0063527D01*
X0069357Y0084175D01*
X0094925Y0109744D01*
X0094925Y0117481D01*
X0104925Y0117481D02*
X0080756Y0093312D01*
X0080756Y0076520D01*
X0078839Y0074603D01*
X0076362Y0074603D01*
X0071618Y0067481D01*
X0070822Y0059552D02*
X0076532Y0055248D01*
X0089956Y0055248D01*
X0091618Y0047954D01*
X0089357Y0045215D02*
X0086618Y0047954D01*
X0089357Y0045215D02*
X0089357Y0044000D01*
X0090341Y0043015D01*
X0092029Y0043015D01*
X0105161Y0029883D01*
X0088035Y0029883D02*
X0081618Y0047954D01*
X0076618Y0047954D02*
X0074846Y0029883D01*
X0071579Y0040276D02*
X0071618Y0047954D01*
X0060122Y0036930D02*
X0053331Y0041108D01*
X0052287Y0069410D02*
X0048134Y0069253D01*
X0043134Y0069253D02*
X0044020Y0074528D01*
X0037720Y0074922D02*
X0038134Y0069253D01*
X0042445Y0097757D02*
X0044807Y0099725D01*
X0086618Y0067481D02*
X0086539Y0059961D01*
X0091618Y0067481D02*
X0094357Y0070220D01*
X0094357Y0071435D01*
X0101894Y0078972D01*
X0101894Y0081615D01*
X0096618Y0067481D02*
X0102287Y0056024D01*
X0096776Y0055237D02*
X0096618Y0047954D01*
D33*
X0053612Y0043440D02*
X0043182Y0043440D01*
X0043134Y0043488D01*
X0043134Y0047599D01*
X0033134Y0047599D02*
X0023862Y0049087D01*
X0023862Y0069891D02*
X0026544Y0072573D01*
X0029160Y0072948D01*
D34*
X0027892Y0069613D01*
X0029160Y0072948D02*
X0033134Y0069253D01*
X0023862Y0049087D02*
X0031249Y0045219D01*
X0033134Y0047599D01*
X0021185Y0038702D01*
X0021579Y0038308D01*
X0025516Y0045788D01*
X0043276Y0035358D02*
X0042311Y0033269D01*
X0043276Y0035358D02*
X0043134Y0047599D01*
D35*
X0045080Y0042008D02*
X0054577Y0040079D01*
X0053331Y0041108D01*
X0055768Y0037961D02*
X0049361Y0037371D01*
X0060122Y0036930D01*
X0058580Y0036930D01*
X0042311Y0033269D01*
X0045077Y0039455D02*
X0049361Y0037371D01*
X0029371Y0046756D02*
X0021615Y0042684D01*
X0023862Y0049087D02*
X0023862Y0033348D01*
X0022626Y0033269D01*
D36*
X0111415Y0070846D03*
X0112206Y0081889D03*
M02*
