%
M48
M72
T01C0.0138
T02C0.0197
T03C0.0276
T04C0.0315
T05C0.0320
T06C0.0354
T07C0.0400
T08C0.1181
%
T01
X3024Y2256
X3223Y3097
X5361Y4344
X6056Y4854
X7158Y4028
X7082Y5955
X8654Y5996
X9678Y5524
X10229Y5602
X11961Y5248
X14379Y5621
X14599Y4933
X15234Y5580
X14323Y8791
X15240Y8777
X13142Y9579
X12237Y8083
X10189Y8161
X8811Y8791
X7630Y8516
X4481Y9973
X4481Y11154
X4481Y11547
X4087Y11547
X4087Y11154
X5093Y7845
X4402Y7453
X3772Y7492
X2916Y7295
X5229Y6941
X10386Y9973
T02
X11141Y7085
X11221Y8189
X6182Y8193
T03
X2296Y11760
X2453Y11762
X3418Y9378
X2453Y8908
X2296Y8906
X3418Y11289
T04
X3600Y5626
X3600Y6059
X4063Y6059
X4063Y5626
X4527Y5626
X4527Y6059
T05
X14807Y6585
X14807Y7785
T06
X7748Y5959
X9481Y5959
T07
X14449Y11051
X6012Y2693
X6012Y3693
X7485Y2988
X8804Y2988
X10516Y2988
X11678Y2988
X13449Y11051
X12449Y11051
X10493Y11748
X9493Y11748
X8493Y11748
X7493Y11748
T08
X13142Y5248
X6449Y10366
M30
